<svg width="200" height="97pt" viewBox="0 0 150 97" xmlns="http://www.w3.org/2000/svg"><path fill="#1d1d1d" opacity=".5" d="M5.4 0h139.18c2.2 1.35 4.08 3.19 5.42 5.4v46.35c-1.45 2.67-3.5 5.88-6.94 5.84-12.91.34-25.85-.3-38.76.33-1.09-.42-2.18-.85-3.31-1.15-1.52.43-2.83 1.33-4.3 1.9-1.33-.7-1.69-2.47-2.98-3.23-1.48-.05-2.96.11-4.44.08-1.6-2.79-1.2-6.13-1.82-9.18-.53-4.07-7.29-6.08-9.11-1.9-1.59 4.24-.22 8.9.01 13.27-20.78-.11-41.56-.01-62.34-.05-3.51-.06-7.05.28-10.52-.26-2.7-.76-4.19-3.38-5.49-5.64V5.67C1.21 3.3 3.11 1.34 5.4 0z"/><path fill="#161616" opacity=".72" d="M78.34 44.44c1.82-4.18 8.58-2.17 9.11 1.9.62 3.05.22 6.39 1.82 9.18 1.48.03 2.96-.13 4.44-.08 1.29.76 1.65 2.53 2.98 3.23 1.47-.57 2.78-1.47 4.3-1.9 1.13.3 2.22.73 3.31 1.15 1.03.79 1.82 2.82 3.46 2.11 1.21-.08 2.45-.74 3.65-.3 1.47.94 3.22 2.25 3.02 4.22.56 7.46 2.83 15.56-.94 22.57-2.81 4.03-6.63 8.02-11.72 8.76-6.64.87-14.02-1.39-18.15-6.87-4.85-6.15-10.08-11.98-15.1-17.99-2.1-2.42-1.7-8.39 2.51-7.94 3.28-.66 5.25 3.2 8.31 2.89.58-2.61-.36-5.16-.99-7.66-.23-4.37-1.6-9.03-.01-13.27m1.78 2.76c1 3.91-.88 7.89.4 11.72.35 1.83-.03 3.71.24 5.54 1.4 1.89 2.9 3.89 1.96 6.4l-1.75-.15c-1.26-2.35-3.84-3.26-5.57-5.15-1.3-1.27-3.18-1.78-4.94-2-1.24 1.34-1.8 3.23-1.93 5.02 3.04 3.6 7.69 5.86 9.67 10.3 3.03 2.44 4.43 6.09 6.66 9.16 1.37.61 2.86.96 4.2 1.66 1.16 1.13 2.04 2.91 3.94 2.73 3.39 1.07 6.99 1.07 10.51.79 1.73-1.19 3.25-2.7 4.29-4.54 1.85-.13 2.78-1.17 2.82-3.02 2.96.27 1.27-3.22 2.56-4.79.08-5.92.66-12.04-1.74-17.62-.99-1.35-2.88-2.18-4.34-.97-3.23.31.6 6.36-3.76 4.57 0-1.64-.16-3.27-.48-4.87l-.04-.58c1.79-1.14-.96-2.43-1.9-2.69-1.22.68-2.16 1.77-3.12 2.78-.88 1.65 1.36 5.92-2.44 4.35.25-2.81-.32-5.41-1.37-7.98-1.59-.34-3.45.05-4.23 1.62-.21 3.12.12 6.25-.21 9.36h-2.2c-.36-4.29.29-8.6-.26-12.88-.47-1.66-1.83-3.13-1.28-4.97.11-1.64 1.3-4.43-1.49-4.3-.27-.45-.8-1.37-1.06-1.83-1.5-.25-2.24 1.49-3.14 2.34z"/><path fill="#8c8c8c" opacity=".75" d="M84.32 46.69c-.56.45-.56.45 0 0z"/><g fill="#7f7f7f"><path opacity=".5" d="M92.25 59.33h.46v.46h-.46v-.46zM102.86 61.98l-.04-.58.04.58z"/></g></svg>