<svg width="64" height="32pt" viewBox="0 0 48 32" xmlns="http://www.w3.org/2000/svg"><g fill="#939393"><path d="M0 0h48v32H0V0m2.09 1.97c-.11 9.36-.08 18.72-.01 28.07 14.53.36 29.21.6 43.71-.12.29-9.31.18-18.64.13-27.95-14.57-.47-29.26-.48-43.83 0z"/><path d="M30.47 5.43c5.92-1.54 10.06 6.06 6.21 10.58 2.94 2.67 6.97 6.26 5.17 10.72-6.36-.11-12.87.38-19.15-.4-1-2.64.71-6.74 3.31-8.36.76-.65 2.77-1.32 1.67-2.63-2.2-3.4-1.1-8.35 2.79-9.91m-.09 2.67c-2.57 1.61-2.21 6.29.81 7.19 2.55.8 5.23-1.59 4.77-4.21-.03-2.65-3.36-4.4-5.58-2.98M28.4 18.49c-1.63 1.48-4.47 3.8-3.12 6.18 4.82-.01 9.65-.04 14.47.01.31-5.53-6.81-8.47-11.35-6.19zM6.13 6.98c4.9-.51 9.9-.48 14.8-.06-.02.46-.08 1.38-.1 1.83-3.94.12-7.87-.06-11.81.05-1.14.13-3.58-.01-2.89-1.82zM6.22 15.2c4.91-.47 9.87-.24 14.8-.19 0 .5-.01 1.48-.02 1.97-4.92.08-9.87.28-14.77-.18-.01-.4-.01-1.2-.01-1.6zM7.3 23.25c3.2-.15 6.4-.06 9.6-.03 1.15 3.46-3.95 1.66-5.91 2.15-1.67.22-7.32-.17-3.69-2.12z"/></g></svg>