<svg width="160" height="70pt" viewBox="0 0 120 70" xmlns="http://www.w3.org/2000/svg"><g fill="#1d1d1d"><path opacity=".5" d="M12.46 0h68.4c1.27 1.98 3.57 3.58 1.82 6.57-2.78 9.5-4.6 19.25-7.29 28.76-.16.61-.48 1.82-.64 2.42-1.34 1.35-2.65 2.73-3.88 4.18-22.86.09-45.73.19-68.59-.07-.31-.53-.94-1.6-1.26-2.14C3.98 26.69 4.04 10.8 12.46 0zM31.99 52.98c1.81.03 5.42.09 7.23.11-1.34 2.17-3.4 2.83-6.2 2v2.82c4.53-2.31 6.18 1.74 7.01 4.75-.79 1.05-1.47 2.17-2.19 3.27l-6.83.08c0-.5-.01-1.51-.01-2.01h2.99l.02 1 .66-.29c.56-.22 1.69-.67 2.25-.89.04-1.26.07-2.53.1-3.79L32 60c0-1.76-.01-5.26-.01-7.02zM42.1 55.16c1.93-2.47 4.9-2.38 7.86-2.22.01.52.03 1.55.05 2.07-.5 0-1.5-.01-2-.01l-.08-1.05c-.41.08-1.23.23-1.64.3l-2.2.96c-.02.66-.07 2-.1 2.66 1.54.29 4.62.86 6.15 1.14.4 2.54.02 4.91-1.14 7.11-3.7 1.48-7.12-.11-7.43-3.75-.7-1.5-.97-3.35.18-4.71.09-.62.27-1.87.35-2.5M44 60v4h1v1h2v-1h1v-4h-4zM52 53c3.01-.01 6.04 0 9.06.03-.08.68-.23 2.03-.31 2.71-3.01 2.87-2.05 9.9-6.88 10.33.56-2.26 1.73-4.29 2.76-6.35.38-1.01.73-2.02 1.04-3.05.1-.4.3-1.2.4-1.61-1.52-.01-4.56-.05-6.07-.06v-2z"/></g><path fill="#0e0e0e" opacity=".25" d="M80.86 0h34.84c.32.58.96 1.73 1.28 2.3-.99 12.08-5.23 23.73-8.15 35.45-9.35 10.03-25.91 1.47-37.96 4.18 1.23-1.45 2.54-2.83 3.88-4.18.16-.6.48-1.81.64-2.42 2.69-9.51 4.51-19.26 7.29-28.76 1.75-2.99-.55-4.59-1.82-6.57z"/><g fill="#161d20"><path opacity=".42" d="M20.09 53.06c.71-.02 2.15-.05 2.87-.07.01 2.61.05 5.21.13 7.81.74.66 1.45 1.34 2.14 2.05-.57.04-1.69.13-2.25.18 0 .74.02 2.22.02 2.96-.5.01-1.5.01-2 .01v-3l-6.05-.04c.07-.68.21-2.04.29-2.72 1.7-2.33 3.22-4.8 4.85-7.18m.17 2.09c-.75 2.13-1.88 4.09-3.36 5.8 1.37.03 2.74.05 4.12.06-.01-1.5-.02-4.51-.02-6.01l-.74.15zM68 56h6v2h-4v8h-2V56z"/></g><path fill="#020303" opacity=".05" d="M20.26 55.15L21 55c0 1.5.01 4.51.02 6.01-1.38-.01-2.75-.03-4.12-.06 1.48-1.71 2.61-3.67 3.36-5.8z"/><path fill="#161d1f" opacity=".42" d="M75.15 55.88c.85.25 1.7.5 2.55.76 1.39-.33 2.8-.57 4.21-.81 1.77 2.21 2.95 4.79 2.03 7.84-.75.8-1.48 1.61-2.2 2.43-1.62-.22-3.23-.53-4.82-.93.04 1.61.07 3.22.11 4.83h-2.04c0-4.71.06-9.41.16-14.12M78 58v1h-1v4h.99l.02.99.99.02V65h2v-2h1v-4h-1v-1h-3z"/><path fill="#151c1e" opacity=".4" d="M86 56h2v4h5v-4h2v10h-2v-4h-5v4h-2V56z"/></svg>