<svg width="61pt" height="56" viewBox="0 0 61 42" xmlns="http://www.w3.org/2000/svg"><g fill="#1d1d1d"><path opacity=".5" d="M0 0h28.88c.01 6.65.01 13.3 0 19.94-9.62-.3-19.26-.28-28.88-.01V0m1.36 1.05c-.04 5.92.2 11.85-.11 17.77 8.83.1 17.66.08 26.48 0-.24-5.92-.14-11.84-.11-17.77-8.75-.34-17.51-.26-26.26 0zM32.11 0H61v19.9c-9.63-.2-19.26-.27-28.89.04-.01-6.64 0-13.29 0-19.94m1.23 1.06c-.02 5.91.22 11.83-.09 17.74 8.82.11 17.66.15 26.48.02-.24-5.92-.14-11.84-.1-17.75-8.76-.3-17.53-.33-26.29-.01z"/><path opacity=".5" d="M3.06 4.06c.25-1.59 2.58-1.9 3.39-.49C7.99 4.89 6 6.65 4.94 7.52c-1.09-.84-2.75-1.81-1.88-3.46zM35.29 3.32c1.87-2.11 5.13 1.24 3.03 3.03-1.9 2.01-4.7-.95-3.03-3.03zM11.22 13.82c2.11-2.82 3.81-6 6.46-8.38 2.97 4.25 6.11 8.38 8.92 12.74-8.07.12-16.15.13-24.22.01 1.8-2.81 3.73-5.52 5.76-8.16 1.02 1.28 2.06 2.52 3.08 3.79zM43.22 13.83c2.12-2.82 3.79-6.04 6.49-8.39 2.93 4.28 6.11 8.38 8.89 12.76-8.07.12-16.14.12-24.21-.03 1.8-2.79 3.72-5.5 5.74-8.13 1.02 1.27 2.08 2.51 3.09 3.79zM0 22.1c9.63-.16 19.27-.12 28.9-.03-.02 6.64-.01 13.28-.02 19.93H0V22.1m1.34.97c-.01 5.92.21 11.84-.08 17.75 8.82.11 17.65.12 26.48-.01-.26-5.92-.15-11.84-.12-17.76-8.75-.21-17.52-.23-26.28.02zM32.1 22.06c9.63-.09 19.27-.11 28.9.02V42H32.12c-.02-6.65-.01-13.29-.02-19.94m1.24 1.01c-.01 5.91.21 11.83-.09 17.75 8.83.1 17.66.12 26.49-.02-.26-5.92-.14-11.84-.12-17.76-8.76-.18-17.53-.24-26.28.03z"/><path opacity=".5" d="M3.28 25.32c2.35-2.3 5.33 1.97 2.56 3.52-2.29.96-3.79-1.65-2.56-3.52zM34.92 25.98c1.23-2.41 3.72-.83 4.52.99-1 2.8-5.54 2.43-4.52-.99zM11.22 35.83c2.1-2.83 3.82-5.99 6.44-8.39 3 4.23 6.11 8.38 8.94 12.74-8.07.16-16.15.14-24.22.02 1.79-2.81 3.73-5.53 5.77-8.16 1.01 1.27 2.05 2.52 3.07 3.79zM43.22 35.83c2.15-2.8 3.75-6.11 6.54-8.36 2.87 4.28 6.04 8.35 8.83 12.69-8.07.2-16.14.14-24.21.03 1.8-2.8 3.72-5.51 5.75-8.15 1.02 1.27 2.07 2.51 3.09 3.79z"/></g></svg>