<svg width="44" height="28" viewBox="0 0 33 21" xmlns="http://www.w3.org/2000/svg"><g fill="#2f2f2f"><path opacity=".8" d="M.64 0h3.33c.01 3 .02 5.99.05 8.99 3 .03 6.01.03 9.01-.02.05-2.99.07-5.98.06-8.97h3.31c-.01 6.81.05 13.62-.03 20.43-.81.02-2.43.05-3.24.07-.03-3.01-.07-6.02-.15-9.02-2.97-.04-5.95-.04-8.92-.01-.05 3-.08 6-.11 9.01l-3.32-.04C.56 13.63.58 6.81.64 0zM22.19 2.38c2.14-.6 4.3-1.17 6.47-1.67.5 5.72.17 11.47.28 17.2.87.04 2.61.13 3.48.18.14.57.43 1.73.57 2.3-3.77.1-7.54.1-11.32.04.14-.58.42-1.74.55-2.31 1.14-.12 2.27-.2 3.41-.25-.05-4.53-.02-9.06-.06-13.59-1.22.32-2.44.63-3.66.94l.28-2.84z"/></g></svg>