<svg width="40pt" height="32" viewBox="0 0 40 24" xmlns="http://www.w3.org/2000/svg"><g fill="#2f2f2f"><path opacity=".8" d="M1.54 0H5.4c-.02 2.99 0 5.97 0 8.96 3.61.06 7.23.07 10.85.01.01-2.99.04-5.98.01-8.97h3.8c.01 7.81.06 15.61-.03 23.42-.94.03-2.81.08-3.75.11.03-3.67-.03-7.33-.06-11-3.6-.09-7.2-.11-10.8-.05 0 3.65-.05 7.31-.02 10.96-.97.01-2.89.03-3.85.05C1.52 15.66 1.54 7.83 1.54 0zM29.51 0h4.82c2.46.74 4.41 2.41 5.67 4.62v2.26c-1.8 6.28-9.62 7.19-12.2 13 4.07.13 8.13.13 12.2.22v3.32c-5.36-.04-10.74.34-16.08-.27-1.02-6.55 5.14-10.29 9.74-13.47 1.86-.95 3.16-3.92.96-5.22-2.79-2.3-6.12-.03-8.8 1.22-.6-.93-1.21-1.86-1.83-2.79C25.78 1.83 27.57.76 29.51 0z"/></g></svg>