<svg width="68" height="68" viewBox="0 0 51 51" xmlns="http://www.w3.org/2000/svg"><g fill="#9a9a9a"><path d="M19.59 4.55c5.58-2.75 13-.64 16.14 4.76 2.22 3.6 1.91 8.15.42 11.96-2.15 5.85-6.72 10.29-11.03 14.61-5.15-4.59-10.1-9.92-11.98-16.74-1.78-5.58.97-12.29 6.45-14.59m2.84 4.98c-4.75 1.67-5.71 8.82-1.58 11.71 4 3.56 11.13.09 10.86-5.24.47-4.79-4.98-8.34-9.28-6.47z"/><path d="M6.82 19.28c1.54.54 3.07 1.1 4.55 1.77-.86.25-2.59.76-3.45 1.01-2.06 5.58-2.97 11.49-4.61 17.19 2.79 1.73 5.55 3.49 8.31 5.27.98-4.72 1.15-9.63 2.6-14.22l1.39-.95c-.48 5.21-1.56 10.33-2.19 15.52 3.47-.95 6.93-1.93 10.36-3 .35-1.43.77-2.84 1.26-4.23.45 1.4.84 2.82 1.15 4.26 3.45 1.07 6.94 2 10.43 2.95-.77-5.04-1.29-10.11-2.26-15.11l1.71.12c.71 4.91 1.62 9.8 2.26 14.72 2.73-1.74 5.6-3.28 8.23-5.18-1.12-5.88-2.84-11.66-4.41-17.44-1.19-.25-2.37-.54-3.54-.86 1.47-.7 3-1.28 4.54-1.81 1.86 6.93 3.65 13.88 5.45 20.82-3.59 2.23-7.23 4.36-10.77 6.65-4.33-.85-8.46-2.52-12.81-3.22-4.36.68-8.48 2.39-12.81 3.22-3.58-2.25-7.26-4.34-10.81-6.65 1.95-6.9 3.48-13.92 5.42-20.83z"/></g></svg>