<svg width="47pt" height="56" viewBox="0 0 47 42" xmlns="http://www.w3.org/2000/svg"><g fill="#1d1d1d"><path opacity=".5" d="M.39 0h46.16c.22 9.61.27 19.24-.01 28.85-14.87-.02-29.74.15-44.61-.06-2.17.39-1.42-2.53-1.68-3.76C.35 16.68.21 8.34.39 0m1.74 2.09c0 8.25.1 16.5-.07 24.75 14.29.03 28.58.01 42.86.01-.14-8.25-.06-16.51-.06-24.76-14.24-.02-28.49-.03-42.73 0z"/><path opacity=".5" d="M5.46 5.44c2.36-2.9 8 1.1 4.93 3.94-2.34 3.3-8.46-1.1-4.93-3.94zM18.14 19.77c3.3-3.85 6.37-7.89 9.95-11.49 5.67 5.31 10.23 11.67 15.26 17.57-13.24-.02-26.48-.02-39.72 0 2.42-3 4.84-6.01 7.38-8.91.78-.81 1.59-1.88 2.86-1.82 1.66 1.31 2.91 3.04 4.27 4.65zM0 33h47v2H0v-2zM0 40c10 .02 20-.02 30-.02 1.74-.3 2.93.97 4.1 2.02H0v-2z"/></g></svg>