<svg width="38pt" height="31pt" viewBox="0 0 38 31" xmlns="http://www.w3.org/2000/svg"><g fill="#2c2c2c"><path opacity=".29" d="M0 0h.19L0 .23V0zM37.77 0H38v.19L37.77 0z"/></g><g fill="#9a9a9a"><path d="M.19 0h37.58l.23.19v6.22c-1.64.35-3.31.63-4.99.61C25.67 7 18.33 6.99 10.99 7 7.32 6.99 3.61 7.25 0 6.46V.23L.19 0zM0 12.6c1.64-.36 3.31-.64 5-.62 9 .02 18 .05 27-.01 2.02-.04 4.02.19 6 .58v5.86c-1.64.36-3.31.62-5 .61-9-.02-18-.05-27 .01-2.02.04-4.02-.19-6-.57V12.6zM0 24.6c3.27-.84 6.66-.6 9.99-.61 7.34.01 14.68.02 22.01-.02 2.02-.04 4.02.19 6 .57v6.23l-.19.23H.23L0 30.81V24.6z"/></g><g fill="#2c2c2c"><path opacity=".29" d="M0 30.81l.23.19H0v-.19zM37.81 31l.19-.23V31h-.19z"/></g></svg>