<svg width="50pt" height="16pt" viewBox="0 0 50 16" xmlns="http://www.w3.org/2000/svg"><g fill="#2f2f2f"><path opacity=".8" d="M5.38 0h3.04c-1.5 2.52-2.86 5.12-4.29 7.68 1.52 2.42 2.98 4.87 4.4 7.34l-3.23-.08c-1.43-2.34-3.09-4.57-4.12-7.12C1.72 4.9 3.84 2.49 5.38 0z"/><path opacity=".8" d="M10.95 0h3.02c-1.45 2.59-2.9 5.18-4.34 7.77 1.54 2.39 3.03 4.8 4.49 7.23-.77 0-2.31.01-3.08.01-1.49-2.55-3.89-4.88-4.24-7.88C7.84 4.57 9.4 2.27 10.95 0zM36.34 0h3.12c1.55 2.32 3.18 4.64 4.23 7.24-.52 2.82-2.65 5.1-4 7.59-.86.05-2.59.16-3.46.21 1.48-2.46 2.97-4.9 4.5-7.34-1.41-2.59-2.79-5.21-4.39-7.7z"/><path opacity=".8" d="M41.95 0h3.13c1.51 2.29 3.08 4.57 4.12 7.12-.38 2.99-2.76 5.32-4.22 7.89-.77 0-2.32 0-3.1-.01 1.46-2.43 2.95-4.84 4.49-7.22-1.46-2.61-2.84-5.25-4.42-7.78zM18.1 11.91c2.58-.41 2.09 2.42 2.46 4.09h-3.08c-.28-1.43-.95-3.14.62-4.09zM23.69 16c-.22-1.71-.32-4.47 2.23-4.11 1.49 1.01.79 2.67.59 4.11h-2.82zM29.73 16c-.34-1.68-.31-4.53 2.18-4.09 1.53.98.79 2.66.6 4.09h-2.78z"/></g></svg>