<svg width="200pt" height="176pt" viewBox="0 0 200 176" xmlns="http://www.w3.org/2000/svg"><path fill="#1b1a1a" opacity=".21" d="M84.93 0h9.12c3.68 1.71 7.75 2.57 11.14 4.88-8.6-3.36-18.09-2.86-27.08-1.75C80.37 2.07 82.63 1 84.93 0z"/><path fill="#454242" opacity=".54" d="M78.11 3.13c8.99-1.11 18.48-1.61 27.08 1.75 6.98 4.62 13.26 11.1 15.81 19.23.95 4.56.45 9.26.56 13.88.31 7.26-3.81 13.87-8.53 19.04-5.18 4.7-11.75 8.97-19.04 8.52-5.58-.22-11.48.78-16.74-1.6-8.41-3.2-14.8-10.46-18.32-18.58-1.78-6.94-1.78-14.38-.11-21.34 3.01-9.35 10.7-16.55 19.29-20.9m9.36 2.44c-10.81-.13-19.92 7.78-24.61 16.99-1.73 6.89-2.01 14.26-.3 21.2 2.92 8.17 9.88 14.25 17.67 17.65 6.36.93 12.94 1.17 19.26-.18 9.53-4.2 19.04-12.99 18.34-24.24-.06-3.92.22-7.88-.36-11.77-2.97-8.09-9.36-14.58-17-18.41-4.23-1.06-8.65-1.47-13-1.24z"/><path fill="#7e7a7a" d="M85.37 27.43c-.3-3.65.16-7.7 3.7-9.67 3.09-.72 6.3-.36 9.43-.26.05 1.57.09 3.15.14 4.73-1.74.5-3.46 1.02-5.2 1.5-.04 1.86-.04 3.73-.04 5.59 1.66.06 3.33.13 5 .23.05 1.54.1 3.09.14 4.64-1.64.56-3.29 1.1-4.95 1.59-1.78 5.54-.41 11.39-1.17 17.06-2.17-.03-4.34-.04-6.5-.27-1.49-4.56.24-9.72-.83-14.44-1.63-2.56-4.52-4.73-3.69-8.15 1.33-.83 2.65-1.7 3.97-2.55z"/><g fill="#444242"><path opacity=".54" d="M146.55 34.81c7.38-1.63 14.98-.98 22.43-.25 1.69 2.44 5 2.5 7.18 4.3 5.81 4.77 11.1 10.71 13.14 18.1.37 2.66.2 5.36.23 8.05-.09 4.87.67 10.1-2.03 14.46-3.68 8.71-11.55 15.05-20.44 17.85-2.68.35-5.39.16-8.08.18-4.58-.13-9.46.72-13.67-1.57-8.56-3.05-14.69-10.52-18.46-18.51-1.57-7.28-1.78-14.99.17-22.22 3.4-9.13 11.03-16.02 19.53-20.39m8.92 2.77c-10.81-.14-19.92 7.77-24.61 16.98-1.44 5.69-1.84 11.71-1.01 17.54.74 7.28 6.01 13.14 11.6 17.4 2.6 1.75 5.22 3.98 8.49 4.16 5.82.64 11.79.8 17.54-.43 9.53-4.2 19.05-12.99 18.34-24.24-.06-3.92.22-7.88-.35-11.77-2.98-8.09-9.36-14.57-17-18.4-4.23-1.06-8.64-1.49-13-1.24zM152.14 112.1c2.92-1.9 6.5-2.01 9.87-2.27 4.58-.19 9.22-.12 13.73.77 9.12 3.19 16.37 10.53 20.58 19.12 1.84 3.47 1.34 7.51 1.44 11.29-.13 3.78.34 7.68-.67 11.38-1.56 4.04-3.96 7.72-6.65 11.1-3.52 4.4-8.78 6.72-13.45 9.62-8.69.21-17.89 1.62-26.1-2.01-5.43-3-10.04-7.36-13.31-12.65-4.44-6.13-4.22-14.16-3.69-21.35.88-10.97 9.19-19.66 18.25-25m11.33 1.48c-10.68-.31-19.13 7.84-24.34 16.36-1.73 4.97-1.9 10.41-1.57 15.63.38 8.32 5.51 15.97 12.44 20.37 2.49 1.51 4.89 3.6 7.94 3.73 5.59.66 11.28.68 16.84-.24 7.38-2.78 13.71-8.32 17.25-15.4 2.21-3.26 1.69-7.33 1.8-11.04-.06-3.26.15-6.55-.36-9.77-2.97-8.09-9.36-14.58-17-18.4-4.23-1.07-8.64-1.49-13-1.24z"/></g><path fill="#686565" opacity=".82" d="M147.62 54.77c3.65-1.07 7.48-1.3 11.25-.92l-.01 1c-.07 2.86-.05 5.73-.25 8.59-.4 1.63-2.04 2.75-2.21 4.43 1.03 2.6 4.33 4.06 4.28 7.12.65 5.06-5.03 8.94-9.71 8.39-3.62-.35-8.53-2-8.59-6.37-.51-4.2 3.83-5.86 6.57-7.89-1.9-2.23-4.43-4.17-5.3-7.1-.49-2.95 1.85-5.51 3.97-7.25m2.28 8.28c.5 2.19 3.01 1.39 4.63 1.58.13-2.63.62-6.01-2.58-6.99-3.08-.56-3.26 3.52-2.05 5.41m.36 9.93c-1.26.92-3.3 1.95-2.84 3.82.68 3.31 5.94 3.79 7.93 1.51 3.17-2.77-2.3-7.22-5.09-5.33z"/><path fill="#5c5959" opacity=".72" d="M158.86 54.85c1.36 1.67 1.52 3.87 1.96 5.9 1.57-.39 3.13-.8 4.69-1.21.38-1.42.76-2.84 1.12-4.27.98-.03 1.96-.05 2.94-.06.35 1.35.7 2.69 1.04 4.04 2.28.4 5.66 1.04 4.21 4.12-1.46.31-2.92.65-4.36 1-.37 1.4-.75 2.79-1.1 4.19-.87.02-1.72.03-2.58.03-.34-1.75-.86-3.44-1.53-5.09-2.21-.03-4.43-.04-6.64-.06.2-2.86.18-5.73.25-8.59z"/><g fill="#121212"><path opacity=".15" d="M82.87 66.36c4.38-.88 8.9-.9 13.29-.04-3.89 2.7-9.34 2.54-13.29.04zM150.87 98.38c4.38-.9 8.91-.94 13.3-.06-3.89 2.73-9.34 2.5-13.3.06z"/></g><g fill="#3d3b3b"><path opacity=".48" d="M55.23 84.13c2.94.09 6.72-.98 8.73 1.86 4.42 5.16 10.51 8.35 16.12 11.99 10.66 6.98 20.92 14.58 31.63 21.46.49 3.01 1.42 7.63-2.12 9.11-11.58 6.41-21.94 14.69-32.7 22.32-4.84 3.51-9.41 7.52-14.84 10.12-2.58 1.39-6.43.38-7.27-2.63-1.24-5.99.57-12.22-.86-18.17-1.04-.9-2.44-1.05-3.75-.9-6.39.72-12.91 1.78-18.55 5.06-8.51 3.63-14.93 10.51-20.96 17.29-1.16 1.26-1.63 2.92-2.21 4.49 24.5.48 49.03.1 73.55.29 3.69.05 7.38-.09 11.06-.33 2.92-8.72-.13-18.06 2.21-26.89 1.98.06 4.01-.07 5.93.52 1.39 10.47.94 21.08.14 31.6-.55.13-1.66.39-2.22.52 1.16-10.08.65-20.26.54-30.38l-2.76-.4c-1.86 8.05.82 16.47-1.38 24.46-.94 2.62-4.15 2.66-6.46 2.82-24.03.09-48.07-.1-72.09-.01-3.26-.24-8.68 1.89-10.03-2.37.26-2.11 1.09-4.1 1.92-6.03 7.54-8.5 16.03-16.74 26.83-20.85 4.81-1.19 9.52-2.85 14.41-3.68 3.05-.57 6.33 1.3 6.94 4.44 1.51 6.29-.52 12.74.2 19.1 4.96.11 8.47-3.78 12.35-6.25 11.11-7.57 21.4-16.33 33.02-23.14 2.94-1.85 5.56-4.14 8.08-6.52-6-5.42-13.09-9.39-19.56-14.19-8.85-6.59-18.62-11.86-27.35-18.62-1.72-1.22-3.49-2.69-5.7-2.73-1.52.93-.75 3.06-.96 4.52.37 5.52.67 11.04.38 16.56-7.85 1.82-15.96 2.98-23.31 6.48-8.05 3.86-16.04 8.79-21.09 16.36-.3-.43-.9-1.28-1.2-1.71 2.66-5.41 8.07-8.46 12.57-12.13 5.38-3.82 11.48-7.64 18.39-6.91-.93-.5-1.85-1-2.78-1.5 4.81-1.16 9.74-1.71 14.68-1.59l-.14-.7c.03-7.58-.4-15.2.61-22.74z"/><path opacity=".48" d="M0 96.05c11.64-1 23.34-.31 35-.5 5.49.15 11.2-.83 16.46 1.25-.09 2.22-.19 4.43-.3 6.65-15.21 1.32-30.48.55-45.72.98.06 10.86-.07 21.71-.08 32.57 1.36-.88 2.72-1.74 4.05-2.66-.96 1.83-2.08 3.56-3.32 5.2-1.58-1.46-3.46-3.04-2.8-5.45.98-8.69 1.06-17.43.68-26.15-.36-2.87 1.31-6.27 4.54-6.26 5.82-.3 11.66-.04 17.49-.32 7.33-.3 14.72.67 22-.45 1.99-2.77-2.02-3.3-3.97-3.29-10.01-.07-20.02.11-30.03-.03-4.7-.1-9.43.13-14 1.29v-2.83z"/></g><path fill="#7a7777" opacity=".96" d="M57.12 92.01c.21-1.46-.56-3.59.96-4.52 2.21.04 3.98 1.51 5.7 2.73 8.73 6.76 18.5 12.03 27.35 18.62 6.47 4.8 13.56 8.77 19.56 14.19-2.52 2.38-5.14 4.67-8.08 6.52-11.62 6.81-21.91 15.57-33.02 23.14-3.88 2.47-7.39 6.36-12.35 6.25-.72-6.36 1.31-12.81-.2-19.1-.61-3.14-3.89-5.01-6.94-4.44-4.89.83-9.6 2.49-14.41 3.68-10.8 4.11-19.29 12.35-26.83 20.85-3.42 3.02-3.02 7.9-3.78 12.01-1.69-.04-3.39-.09-5.08-.13v-27.4c2.78-2.08 5.93-3.62 8.62-5.82 2.24-1.83 3.41-4.57 4.48-7.18 5.05-7.57 13.04-12.5 21.09-16.36 7.35-3.5 15.46-4.66 23.31-6.48.29-5.52-.01-11.04-.38-16.56z"/><path fill="#605d5d" opacity=".76" d="M0 98.88c4.57-1.16 9.3-1.39 14-1.29 10.01.14 20.02-.04 30.03.03 1.95-.01 5.96.52 3.97 3.29-7.28 1.12-14.67.15-22 .45-5.83.28-11.67.02-17.49.32-3.23-.01-4.9 3.39-4.54 6.26.38 8.72.3 17.46-.68 26.15-.66 2.41 1.22 3.99 2.8 5.45 1.24-1.64 2.36-3.37 3.32-5.2.85-1.54 1.64-3.1 2.49-4.64.3.43.9 1.28 1.2 1.71-1.07 2.61-2.24 5.35-4.48 7.18-2.69 2.2-5.84 3.74-8.62 5.82V98.88z"/><path fill="#403e3e" opacity=".5" d="M171.43 127.59c4.8-1.11 9.59.73 14.39.99 1.13 2.24.59 4.59-.61 6.67-2.04 3.57-1.01 8.08-3.4 11.5-3 5.71-8.05 10.32-14.05 12.67-4.84.58-9.76.47-14.61.11-2.14.04-2.69-2.23-2.97-3.9 1.88-.78 3.74-1.65 5.57-2.57-2-4.81-6.87-8.8-6.14-14.4-.02-3.34-2.23-6.79.63-9.62 5 1.87 8.6 7.28 14.45 6.71 2.79-2.15 3.38-6.49 6.74-8.16m-1.63 3.12c-.97 2.52-.9 5.96-3.32 7.61-5.6.58-9.78-3.9-14.67-5.75.4 3.31.32 6.67.86 9.95.94 2.27 2.19 4.4 3.22 6.62 1.23.93 3.48 1.65 2.89 3.63-.99 1.92-2.52 3.47-3.83 5.16 7.68 1.63 16.22-.5 21.62-6.35 4.5-5.45 5.9-12.62 6.65-19.46-2.68-1.23-5.2-3.08-8.18-3.48-1.86.33-3.54 1.28-5.24 2.07z"/><path fill="#807c7c" d="M169.8 130.71c1.7-.79 3.38-1.74 5.24-2.07 2.98.4 5.5 2.25 8.18 3.48-.75 6.84-2.15 14.01-6.65 19.46-5.4 5.85-13.94 7.98-21.62 6.35 1.31-1.69 2.84-3.24 3.83-5.16.59-1.98-1.66-2.7-2.89-3.63-1.03-2.22-2.28-4.35-3.22-6.62-.54-3.28-.46-6.64-.86-9.95 4.89 1.85 9.07 6.33 14.67 5.75 2.42-1.65 2.35-5.09 3.32-7.61z"/><path fill="#615e5e" opacity=".76" d="M96.9 141.06l2.76.4c.11 10.12.62 20.3-.54 30.38-3.03.27-6.08.2-9.13.18-28.3-.09-56.6.07-84.91-.08.76-4.11.36-8.99 3.78-12.01-.83 1.93-1.66 3.92-1.92 6.03 1.35 4.26 6.77 2.13 10.03 2.37 24.02-.09 48.06.1 72.09.01 2.31-.16 5.52-.2 6.46-2.82 2.2-7.99-.48-16.41 1.38-24.46z"/><path fill="#101010" opacity=".13" d="M150.89 171.1c8.21 3.63 17.41 2.22 26.1 2.01-1.18.95-2.3 1.95-3.48 2.89h-15.99c-2.24-1.59-4.35-3.36-6.63-4.9z"/></svg>