<svg width="200pt" height="240" viewBox="0 0 200 180" xmlns="http://www.w3.org/2000/svg"><path fill="#1b1a1a" opacity=".21" d="M82.83 0h9.25c2.32.93 4.57 2.01 6.81 3.12-8.97-.93-18.45-1.61-27.02 1.83 3.49-2 7.21-3.53 10.96-4.95z"/><g fill="#454343"><path opacity=".54" d="M71.87 4.95c8.57-3.44 18.05-2.76 27.02-1.83 7.76 3.73 14.58 9.86 18.41 17.64 3.07 5.95 2.36 12.84 2.3 19.29-.43 10.91-8.61 19.79-17.58 25.08-8.21 3.22-17.29 2.64-25.88 1.75-6.79-2.97-13.09-7.61-16.89-14.09-5.54-8.48-5.73-19.42-3.38-28.98 2.92-7.87 8.69-14.73 16-18.86m13.64.68C74.34 5.2 65.04 13.6 60.24 23c-2.43 7.48-2.32 15.79-.24 23.35 2.9 6.45 8.19 11.78 14.27 15.32 4.07 2.66 9.12 1.88 13.72 2.05 3.98-.15 8.35.47 11.86-1.86 7.31-3.71 12.88-10.42 15.48-18.16.62-5.76.58-11.65.03-17.42-2.22-7.09-7.24-13.19-13.51-17.12-4.74-3.27-10.76-3.65-16.34-3.53zM145.13 35.73c7.72-.94 15.86-2.01 23.34.79 9.19 4.41 17.13 12.51 19.76 22.54.68 5.63.48 11.36.17 17-2.01 9.49-9.03 17.44-17.47 21.93-8.12 3.48-17.22 2.66-25.8 1.99-3.14-1.46-6.07-3.34-8.88-5.34-5.16-3.56-8.52-9.13-10.99-14.76-2.69-7.67-1.71-15.93-.51-23.77 2.73-4.32 4.95-9.07 8.7-12.63 3.39-3.29 7.72-5.27 11.68-7.75m9.38 2.9c-11.46-.48-20.75 8.36-25.52 18-2.09 7.35-2.06 15.37.01 22.72 2.9 6.45 8.19 11.78 14.28 15.32 4.07 2.66 9.11 1.88 13.71 2.05 3.99-.16 8.36.47 11.86-1.86 7.31-3.72 12.94-10.38 15.48-18.16.62-5.77.57-11.65.03-17.42-2.22-7.08-7.23-13.19-13.51-17.12-4.74-3.27-10.76-3.65-16.34-3.53zM147.46 116.57c8.01-5.83 18.74-5.8 28.03-3.71 7.91 2.68 14.38 8.82 18.74 15.83 4.38 6.98 3.56 15.53 3.22 23.38-1.39 10.03-8.99 18.09-17.44 23.04-8.19 3.23-17.28 2.71-25.85 1.7-7.33-3.03-13.92-8.26-17.69-15.34-3.69-6.11-4.35-13.51-3.84-20.49.37-9.98 6.74-18.97 14.83-24.41m16.06-.94c-11.46-.48-20.76 8.36-25.53 18-2.1 7.34-2.05 15.37.01 22.72 2.9 6.45 8.19 11.78 14.27 15.31 4.07 2.67 9.12 1.89 13.72 2.06 3.98-.16 8.35.47 11.86-1.86 7.31-3.72 12.94-10.39 15.48-18.16.62-5.77.57-11.65.03-17.42-2.21-7.09-7.24-13.19-13.51-17.12-4.74-3.27-10.76-3.65-16.33-3.53z"/></g><path fill="#3f3d3d" opacity=".49" d="M85.58 17.69c3.43-1.42 7.51-1.55 11-.26 1.25 1.51 1.24 3.76.52 5.5-2.13 1.35-4.46 2.4-6.38 4.06 1.51 1.8 3.95 2.12 6.04 2.86-.04 2.11.04 4.26-.48 6.32-1.53.97-3.24 1.62-4.89 2.34-.15 4.82.28 9.65-.22 14.45-.33 4.43-7.08 3.74-9.42 1.33-.69-5.01-.1-10.1-.39-15.15-1.34-1.48-2.88-2.85-3.79-4.66-.91-2.51 1.36-4.46 2.42-6.49 2.16-3.26 1.98-8.07 5.59-10.3m.33 2.25c-2.1 2.61-2.09 6.19-2.74 9.33-1.27.76-2.54 1.52-3.8 2.29.08.87.15 1.73.24 2.6 1.29 1.06 2.67 2.05 3.74 3.35.97 5.25-.85 10.85 1.1 15.91 1.57.53 3.19.87 4.8 1.25.7-5.94-.13-11.94.6-17.86 1.68-1.24 3.69-1.91 5.59-2.74v-3.15c-1.77-.38-3.54-.76-5.3-1.18.01-2.08.05-4.16.1-6.23 1.74-.44 3.48-.87 5.23-1.29V18.4c-3.18.22-6.84-.52-9.56 1.54z"/><path fill="#7f7b7b" d="M85.91 19.94c2.72-2.06 6.38-1.32 9.56-1.54v3.82c-1.75.42-3.49.85-5.23 1.29-.05 2.07-.09 4.15-.1 6.23 1.76.42 3.53.8 5.3 1.18v3.15c-1.9.83-3.91 1.5-5.59 2.74-.73 5.92.1 11.92-.6 17.86-1.61-.38-3.23-.72-4.8-1.25-1.95-5.06-.13-10.66-1.1-15.91-1.07-1.3-2.45-2.29-3.74-3.35-.09-.87-.16-1.73-.24-2.6 1.26-.77 2.53-1.53 3.8-2.29.65-3.14.64-6.72 2.74-9.33z"/><path fill="#676464" opacity=".81" d="M143.24 59.41c3.01-5.05 9.53-3.77 14.45-3.96-.04 2.95.01 5.9-.1 8.85-.06 2.12-1.93 3.54-3.01 5.19 2.32 3.09 6.16 6.09 4.82 10.44-3.16 6.67-12.94 7.73-17.79 2.39-1.49-1.29-1.36-3.47-.9-5.2 1.61-2.59 4.33-4.12 6.62-6.01-2.79-3.11-7.2-7.31-4.09-11.7m4.45-.25c.1 1.83-.65 3.92.35 5.58.7 1.79 2.74 1.81 4.29 2.36.6-2.37 1.27-4.91-.23-7.1-1.44-.43-2.94-.59-4.41-.84m-.59 16.97c-1.92 1.29-1.08 3.47-.66 5.29 2.25.15 5.06 1.92 6.83-.21 2.36-1.15.82-3.82.7-5.77-2.34-.46-5.22-1.82-6.87.69z"/><path fill="#605d5d" opacity=".76" d="M157.69 55.45c.67 2.36.86 4.82 1.04 7.26 1.85-.4 3.69-.85 5.54-1.27.56-1.9 1.14-3.79 1.74-5.67 1.72 1.5 2.9 3.43 3.78 5.51 1.26.19 2.53.39 3.79.58.02.86.05 2.57.06 3.43-1.4.14-2.81.27-4.21.4-.46 1.55-.9 3.1-1.31 4.65-.81.1-1.61.19-2.4.29-.44-1.65-.9-3.3-1.35-4.94-2.26-.46-4.51-.97-6.78-1.39.11-2.95.06-5.9.1-8.85z"/><g fill="#161515"><path opacity=".18" d="M76.14 66.88c8.59.89 17.67 1.47 25.88-1.75-4.28 2.52-9.08 4.45-14.11 4.5-4.08.09-8.04-1.21-11.77-2.75zM145.13 99.98c8.58.67 17.68 1.49 25.8-1.99-7.3 5.65-17.6 5.7-25.8 1.99zM154.16 176.81c8.57 1.01 17.66 1.53 25.85-1.7-3.73 2.14-7.73 3.81-11.89 4.89h-5.25c-2.93-1.01-5.85-2.01-8.71-3.19z"/></g><path opacity=".19" d="M50.15 73.24c.73-.02 2.19-.05 2.91-.07-4.11 6.14-4.3 13.59-5.12 20.67-1.06 9.32-8.25 17.13-16.92 20.2-10.12 3.25-20.96-1.37-31.02 2.3v-1.99c5.77-1.98 11.92-2.84 18.01-2.41 4.93.22 10.17 1.23 14.84-.95 4.54-2.08 9.38-5.04 10.99-10.07 3.08-9.01 2.31-18.92 6.31-27.68zM30.67 119.91c3.12-2.24 6.71-3.65 10.22-5.16-2.79 2.13-6.11 3.86-8.03 6.89-.89 3.03-.58 6.25-.61 9.37.34 11.68-.03 23.37.05 35.05.27 1.79-.19 4.83 2.24 5.2 6.09 1.04 12.32.22 18.46.36 8.31-.21 16.63.46 24.92-.09 2.86-.04 4.8-2.34 6.76-4.1-3.64-1.47-7.55-2.39-10.94-4.43-1.45-1.9-.92-4.92.95-6.36 4.04-1.06 8.3.15 12.36-.76 2.32-.53 2.03-3.24 1.37-4.95-3.47-1.11-7.27-1.1-10.58-2.7-.67-1.68-1.03-3.47-1.47-5.22 5.88-.75 11.78-1.31 17.66-1.93-.06.57-.2 1.7-.27 2.27-4.34.53-8.67 1.21-12.91 2.32 4.61 1.24 8.83 3.6 11.84 7.36-2.26 2.02-4.31 4.98-7.62 5.14-3.77.26-7.79.25-10.76 2.96 3.69 1.79 8.25 2.53 10.93 5.89-1.02 3.19-2.81 6.06-4.4 8.99-15.6.1-31.21-.02-46.82.01-2.2-4-3.96-8.39-3.56-13.05.69-14.35-.09-28.71.21-43.06z"/><path opacity=".38" d="M53.06 73.17c4.56-.06 9.12-.23 13.68-.07 2.62 5.15 6.46 9.84 7.5 15.67 1.49 7.79-.21 15.68-.21 23.52.09 1.72.26 3.43.41 5.15-1.7-.58-3.45-1.08-5.04-1.92-1.09-2.78-.94-5.85-.97-8.78.46-8.08 1.81-17.08-2.8-24.29-1.3-1.93-2.83-4.62-5.54-4.31-3.04.27-5.12 3.12-5.97 5.83-1.49 5.82.28 12.18-2.34 17.77-2.46 5.14-6.08 9.87-10.89 13.01-3.51 1.51-7.1 2.92-10.22 5.16-.95.67-1.88 1.37-2.8 2.06-.97-.72-1.94-1.45-2.89-2.2-.03-.44-.09-1.33-.13-1.77-.73.01-2.19.02-2.92.02-5.94.06-11.88.03-17.82.06-.03 17.78-.12 35.57-.05 53.35.38.17 1.15.52 1.54.69.22 1.22.42 2.45.6 3.68-2.07.04-4.13.07-6.2.1v-59.56c10.06-3.67 20.9.95 31.02-2.3 8.67-3.07 15.86-10.88 16.92-20.2.82-7.08 1.01-14.53 5.12-20.67z"/><path opacity=".13" d="M66.74 73.1c1.82.81 3.71 1.78 4.72 3.59 2.91 4.67 4.4 10.05 5.66 15.36 1.55 6.56-.42 13.18-1.34 19.67 8.85-.94 17.99-1.12 26.49 1.9.15.36.46 1.07.61 1.43-9.5-2.4-19.55.49-28.85-2.76 0-7.84 1.7-15.73.21-23.52-1.04-5.83-4.88-10.52-7.5-15.67z"/><path opacity=".29" d="M69.37 117.73c-4.38-2.16-1.3-7.44-.94-10.99.03 2.93-.12 6 .97 8.78 1.59.84 3.34 1.34 5.04 1.92-.15-1.72-.32-3.43-.41-5.15 9.3 3.25 19.35.36 28.85 2.76.26 3.66.16 7.33.05 10.99-5.15 1.54-10.52 1.91-15.82 2.56-2.07.16-3.44 1.85-4.89 3.12 4.34 1.47 9.07 1.87 13.13 4.09 2.32 2.36-.01 5.5-1.59 7.54.07-.57.21-1.7.27-2.27-.03-1.48.65-3.34-.53-4.53-3.71-1.41-7.78-1.51-11.49-2.91-.67-2-.52-4.21.39-6.11 4.54-1.19 9.31-.44 13.88-1.38 2.25-1.45 2.01-5.82-.8-6.45-8.58-1.84-17.77 1.28-26.11-1.97z"/><path fill="#8f8f8f" d="M4.11 118.08c5.94-.03 11.88 0 17.82-.06.43 11.15-.12 22.31.64 33.44.41 3.05-.86 5.89-2.84 8.14-2.43.2-5.63-1.05-7.3 1.34-.22 2.25.34 4.46 1.03 6.58h-2.07c-.11 1.49-.21 2.98-.32 4.48-1.83.02-3.65.09-5.47.12-.39-.17-1.16-.52-1.54-.69-.07-17.78.02-35.57.05-53.35z"/><path fill="#868686" opacity=".91" d="M21.93 118.02c.73 0 2.19-.01 2.92-.02.04.44.1 1.33.13 1.77.05 17.41-.02 34.82.03 52.23-4.65.01-9.29-.04-13.94 0 .11-1.5.21-2.99.32-4.48h2.07c2.04-.17 4.51.42 5.97-1.43.24-2.16.21-4.33.3-6.49 1.98-2.25 3.25-5.09 2.84-8.14-.76-11.13-.21-22.29-.64-33.44z"/><path opacity=".28" d="M24.98 119.77c.95.75 1.92 1.48 2.89 2.2.92-.69 1.85-1.39 2.8-2.06-.3 14.35.48 28.71-.21 43.06-.4 4.66 1.36 9.05 3.56 13.05-9.27-.02-18.54-.52-27.82-.22-.18-1.23-.38-2.46-.6-3.68 1.82-.03 3.64-.1 5.47-.12 4.65-.04 9.29.01 13.94 0-.05-17.41.02-34.82-.03-52.23z"/><path opacity=".37" d="M87.11 128.6c5.3-.65 10.67-1.02 15.82-2.56-.18 4.78-.25 9.57-.38 14.36-2 1.63-4.32 3.06-5.67 5.33-.27 3.22.8 6.41.41 9.63-1.6 3.14-4.66 5.2-6.46 8.2-1.7 3.34-1.73 7.3-3.51 10.61-1.46 1.96-4.34 1.45-6.48 1.84 1.59-2.93 3.38-5.8 4.4-8.99-2.68-3.36-7.24-4.1-10.93-5.89 2.97-2.71 6.99-2.7 10.76-2.96 3.31-.16 5.36-3.12 7.62-5.14-3.01-3.76-7.23-6.12-11.84-7.36 4.24-1.11 8.57-1.79 12.91-2.32 1.58-2.04 3.91-5.18 1.59-7.54-4.06-2.22-8.79-2.62-13.13-4.09 1.45-1.27 2.82-2.96 4.89-3.12z"/><path fill="#413f3f" opacity=".51" d="M172.6 129.7c4.54-.42 8.87 1.58 13.35 2.05-1.69 8.2-2.28 17.47-8.33 23.88-3.28 3.69-7.56 6.82-12.54 7.56-4.92.69-9.91.18-14.78-.63-.34-1.04-.68-2.09-1.01-3.13 2.03-1.01 4.06-2.03 6.08-3.08-2.97-5.02-7.07-10.03-6.84-16.19.11-2.6-.88-5.68.86-7.91 5.7.88 9.24 7.16 15.5 6.49 1.83-3.46 3.47-7.99 7.71-9.04m-6.22 11.66c-5.71.3-10.37-3.66-15.16-6.17.04 2.31.09 4.62.27 6.92.09 3.83 2.38 7.06 3.86 10.46 1.25.7 2.5 1.41 3.76 2.12-1.42 2.25-2.87 4.47-4.3 6.71 7.53 1.08 15.86-.65 21.19-6.39 4.88-5.52 5.96-13.12 7.02-20.14-3.18-1.34-6.3-4.04-9.94-3.29-4.26 1.5-4.2 6.69-6.7 9.78z"/><g><path fill="#807c7c" d="M166.38 141.36c2.5-3.09 2.44-8.28 6.7-9.78 3.64-.75 6.76 1.95 9.94 3.29-1.06 7.02-2.14 14.62-7.02 20.14-5.33 5.74-13.66 7.47-21.19 6.39 1.43-2.24 2.88-4.46 4.3-6.71-1.26-.71-2.51-1.42-3.76-2.12-1.48-3.4-3.77-6.63-3.86-10.46-.18-2.3-.23-4.61-.27-6.92 4.79 2.51 9.45 6.47 15.16 6.17z"/></g></svg>