<svg width="56pt" height="38pt" viewBox="0 0 56 38" xmlns="http://www.w3.org/2000/svg"><g fill="#444"><path opacity=".7" d="M0 0h56v38H0V0m2 2v34h52V2H2z"/><path opacity=".7" d="M5.09 7.44c14.32.04 28.65.04 42.97-.01 1.64.02 3.26.31 4.86.62-3.61.58-7.27.58-10.92.49-12.3 0-24.6-.03-36.91.02V7.44zM5.09 14.44c15.61.04 31.21.04 46.82 0v1.12c-15.61-.04-31.21-.04-46.82 0v-1.12zM5.09 21.44c15.61.04 31.21.04 46.82 0v1.12c-15.61-.04-31.21-.04-46.82 0v-1.12zM5.09 28.44c10.94.04 21.88.04 32.82 0 0 .28-.01.84-.01 1.12-10.93-.04-21.87-.04-32.81 0v-1.12z"/></g><path fill="#0d0d0d" opacity=".14" d="M2 2h52v34H2V2m3.09 5.44v1.12C17.4 8.51 29.7 8.54 42 8.54c3.65.09 7.31.09 10.92-.49-1.6-.31-3.22-.6-4.86-.62-14.32.05-28.65.05-42.97.01m0 7v1.12c15.61-.04 31.21-.04 46.82 0v-1.12c-15.61.04-31.21.04-46.82 0m0 7v1.12c15.61-.04 31.21-.04 46.82 0v-1.12c-15.61.04-31.21.04-46.82 0m0 7v1.12c10.94-.04 21.88-.04 32.81 0 0-.28.01-.84.01-1.12-10.94.04-21.88.04-32.82 0z"/></svg>