<svg width="76" height="56" viewBox="0 0 57 42" xmlns="http://www.w3.org/2000/svg"><g fill="#1d1d1d"><path opacity=".5" d="M0 0h57v42H0V0m2.01 2.01c-.02 12.66-.02 25.32 0 37.98 17.66.02 35.32.02 52.98 0 .02-12.66.02-25.32 0-37.98-17.66-.02-35.32-.01-52.98 0z"/><path opacity=".5" d="M25.38 10.43C32.2 8.25 39.92 13.86 39.99 21c.53 6.9-6.24 13.07-13.07 11.89-6.69-.72-11.54-8.1-9.48-14.54 1.06-3.78 4.16-6.87 7.94-7.92m-.37 5.58c-.02 3.66-.02 7.32 0 10.98 3.33-1.82 6.66-3.66 9.99-5.48-3.33-1.84-6.65-3.68-9.99-5.5z"/></g><path fill="#8c8c8c" opacity=".75" d="M25.01 16.01c3.34 1.82 6.66 3.66 9.99 5.5-3.33 1.82-6.66 3.66-9.99 5.48-.02-3.66-.02-7.32 0-10.98z"/></svg>