<svg width="40" height="40" viewBox="0 0 30 30" xmlns="http://www.w3.org/2000/svg"><g fill="#acbbc0"><path d="M11.3 0h5.34c.43 1.56.81 3.14 1.22 4.71 1.43-.87 2.85-1.77 4.27-2.67 1.34 1.19 2.6 2.46 3.78 3.81-.89 1.41-1.75 2.84-2.61 4.28 1.49.38 3.03.61 4.47 1.19 1.11 1.25.5 3.16.51 4.68-1.06 1.52-3.37 1.18-4.96 1.84.87 1.45 1.73 2.91 2.62 4.35-1.22 1.28-2.46 2.53-3.74 3.75-1.45-.89-2.9-1.75-4.36-2.63-.39 1.51-.67 3.05-1.21 4.51-1.26 1.05-3.13.45-4.63.46-1.59-1.04-1.23-3.38-1.88-4.99-1.43.86-2.85 1.74-4.27 2.62-1.34-1.19-2.61-2.45-3.82-3.77.9-1.42 1.8-2.85 2.68-4.29-1.57-.4-3.14-.79-4.71-1.18v-5.32c1.56-.45 3.13-.82 4.7-1.23-.87-1.42-1.76-2.84-2.65-4.25C3.23 4.51 4.5 3.23 5.87 2.06c1.41.9 2.84 1.78 4.27 2.65.39-1.57.78-3.14 1.16-4.71m1.11 1.05l-.75 4.05c-.84.29-1.67.59-2.51.89-1.05-.8-2.11-1.59-3.16-2.4C5.2 4.4 4.4 5.2 3.6 5.99L6 9.17l-.9 2.49-4.05.75.06 3.19c1.3.25 2.61.49 3.92.72.32.82.63 1.65.95 2.47-.65 1.06-1.68 1.96-1.94 3.21.48.9 1.1 1.71 1.85 2.43 1.09-.83 2.2-1.64 3.3-2.46l2.46.99c.26 1.38.53 2.77.81 4.15 1.02-.02 2.04-.02 3.06.01.28-1.4.55-2.79.82-4.19.81-.31 1.62-.61 2.44-.92 1.05.69 2 1.63 3.23 2 .86-.52 1.61-1.18 2.23-1.99-.75-1.08-1.49-2.17-2.23-3.25.31-.81.61-1.62.92-2.43 1.4-.27 2.79-.54 4.18-.82 0-1.02-.01-2.04 0-3.05-1.39-.28-2.77-.55-4.15-.81-.33-.82-.66-1.65-.99-2.47.81-1.09 1.64-2.18 2.47-3.26-.45-.4-1.34-1.21-1.79-1.61-1.54-.71-2.63 1.02-3.83 1.65-.84-.31-1.67-.62-2.5-.94-.23-1.31-.47-2.62-.72-3.92l-3.19-.06z"/><path d="M11.42 9.5c3.64-2.37 8.72 1.42 7.66 5.56-.62 3.57-5.33 5.41-8.15 3.08-3.04-1.98-2.65-6.94.49-8.64m1 1.05c-3.18 1.14-2.74 6.58.65 7.08 2.64.86 5.41-1.91 4.56-4.55-.34-2.32-3.19-3.44-5.21-2.53z"/></g></svg>