<svg width="154pt" height="112pt" viewBox="0 0 154 112" xmlns="http://www.w3.org/2000/svg"><g fill="#8b8b8b"><path d="M4.43 5.47c2.17-.26 4.35-.5 6.54-.48 41.69.03 83.39 0 125.09.01 4.47.03 8.98-.25 13.42.51.55 23.81.23 47.64.33 71.46-.22 10.17.23 20.36-.3 30.52-2.18.29-4.37.54-6.57.53-44.31-.04-88.62-.02-132.92-.02-1.85-.01-3.68-.23-5.51-.47-.55-7.84-.18-15.7-.36-23.55.13-26.17-.32-52.35.28-78.51m6.24 5.07c-.11 29.15.14 58.3-.07 87.46.01 1.57.38 3.1.68 4.64 44.03.04 88.07.38 132.09-.18-.06-30.67-.1-61.35-.06-92.02-44.21.15-88.43-.05-132.64.1z"/><path d="M22.86 21.59c3.96-1.52 9.26-2.35 12.33 1.33 3.79 3.31 3.98 8.87 2.37 13.32-2.09 2.33-4.74 3.98-7.53 5.33-1.68-.07-3.35-.3-5.03-.42-2.85-1.68-4.9-4.23-6.59-7.01-.27-2.48-.22-4.97.03-7.44 1.47-1.7 2.94-3.41 4.42-5.11zM85.68 40.74c1.79-2.5 3.95-5.31 7.31-5.46 4.42 4.3 7.46 9.72 11.14 14.62 11.08 16.42 23.23 32.1 34.32 48.5-36.48.1-72.97-.09-109.45.01-4.66.02-9.33.42-13.98-.03 8.04-11.34 16.55-22.35 24.27-33.91 1.84-2.82 4.38-5.98 8.17-5.23 4.75 4.87 8.27 10.77 11.54 16.69 2.79-.01 3.97-2.73 5.38-4.68 6.8-10.39 14.32-20.26 21.3-30.51z"/></g></svg>