<svg width="40pt" height="40pt" viewBox="0 0 40 40" xmlns="http://www.w3.org/2000/svg"><path fill="#a5b3b8" d="M15.39 0h9.22c3.64 1.08 7.24 2.71 9.92 5.48 2.72 2.71 4.39 6.28 5.47 9.93v9.17C38.2 32.12 32.16 38.2 24.62 40h-9.21c-3.64-1.09-7.23-2.74-9.95-5.47-2.77-2.69-4.39-6.31-5.46-9.96v-9.18C1.84 7.88 7.85 1.79 15.39 0M3.23 12.92c.55 1.92 2.97 1.7 4.47 2.42 2.37-2.59 4.84-5.1 7.41-7.49-.3-1.58-.6-3.16-.89-4.74-5.13 1-9.01 5.14-10.99 9.81m21.93-6.09l-.41.67c2.47 2.56 4.99 5.08 7.42 7.69 1.66-.53 3.31-1.05 4.97-1.58-2.27-4.7-5.87-9.03-11.12-10.4-2.07-.87-3.13 3.54-.86 3.62m-6.64 2.9c-5.08 1.17-9.7 6.32-8.78 11.74.89 3.42 3.3 6.74 6.69 8 3.64.81 8.05.64 10.73-2.32 3.09-2.86 3.28-7.69 2.03-11.46-1.96-3.75-6.31-6.72-10.67-5.96M3.02 26.08c.83 1.78 1.81 3.48 2.98 5.06 1.99 2.39 4.67 6.46 8.28 5.07.73-1.97 1.32-6.03-1.73-6.03-1.02-1.22-2.04-2.44-3.05-3.67-.48-.82-.95-1.65-1.43-2.48-.22.21-.65.63-.87.84-.92-1.7-4.63-.87-4.18 1.21m28.14-1.38l-.32 1.02.34.74c-.11.07-.33.21-.44.27-1.51 1.05-2.91 2.27-4.23 3.55-.08.09-.25.26-.33.35-2.43 1.71-1.3 4.42-.09 6.5L27.22 36l.36-.4 1.06.21 1.3-.5.57-.88.67-.43c.14-.11.41-.31.55-.41.15-.13.46-.39.61-.51.39-.4 1.18-1.18 1.58-1.57l.55-.63.36-.45c.09-.13.27-.4.36-.53.87-1.29 1.33-2.8 1.59-4.32-1.32-.46-2.67-.85-4.01-1.26l-.76-.19-.85.57z"/><g fill="#131516"><path opacity=".12" d="M31.16 24.7l.85-.57.76.19c.04 1.08-.49 1.79-1.59 2.14l-.34-.74.32-1.02zM30.74 26.73c.11-.06.33-.2.44-.27-.11.07-.33.21-.44.27zM33.26 26.26c.53.45.53.45 0 0zM34.83 30.43c.09-.13.27-.4.36-.53-.09.13-.27.4-.36.53zM26.18 30.63c.08-.09.25-.26.33-.35-.08.09-.25.26-.33.35zM30.42 30.41h.45v.45h-.45v-.45zM33.92 31.51l.55-.63-.55.63zM31.73 33.59c.15-.13.46-.39.61-.51-.15.12-.46.38-.61.51zM27.58 35.6c.48-1.14 1.77-1.86 2.93-1.17l-.57.88-1.3.5-1.06-.21zM31.18 34c.14-.11.41-.31.55-.41-.14.1-.41.3-.55.41zM27.22 36l.36-.4-.36.4z"/></g></svg>