<svg width="800" height="200" viewBox="0 0 600 150" xmlns="http://www.w3.org/2000/svg"><path fill="#ffda00" d="M12.53 0h1.09c8.16 7.59 16.28 15.42 26.1 20.86-.95-6.3-1.58-13.49 2.14-19.06 2.68 7.79 5.03 16.22 11.37 21.96 3.5-.08 7.25-.16 10.38 1.67 1.94 1.01 3.17 2.86 4.42 4.57-2.19.33-4.56.27-6.47 1.56-1.98 1.31-3.6 3.08-5.4 4.63-3.44 3.11-7.76 5.12-12.23 6.28-4.94 1.24-10.11 1.61-14.84 3.61-5.15 2.19-9.79 5.44-14.11 8.96-3.46 2.79-6.28 6.25-9.66 9.13-.08-1.19-.39-2.45.17-3.57 2.67-6.27 6.62-11.94 11.15-17 3.77-4.19 8.36-7.51 12.74-11.02C20.84 26.1 14.83 16.4 12.75 5.9c-.41-1.94-.3-3.93-.22-5.9z"/><g fill="#55db30"><path d="M81.6 37.51c5.57-2.65 12.13-4.02 18.14-2.12 2.73.9 4.59 3.23 5.89 5.68-3.32-.18-6.28 1.22-8.7 3.38 3.48 3.3 6.32 7.24 8.33 11.59 1.49 3.28 3.09 6.67 3.14 10.34-2.75-1.39-4.51-4.01-6.75-6.03-3.35-3.34-7.2-6.12-11.35-8.36.72 3.6 1.85 7.33.86 11-3.49-4.39-6.26-9.3-9.92-13.57-9.63-.11-17.3 6.59-24.49 12.12.23-3.01 2.37-5.31 4.1-7.6 5.71-6.79 12.74-12.57 20.75-16.43zM115.26 77.96c-.16-2.51 1.37-5.04 3.75-5.92 1.9-.85 4.02-.38 6.01-.29.02 4.54-.01 9.09.1 13.63 4.66-1.02 9.69-1.62 14.25.14 4.06 1.58 7.02 5.29 8.14 9.44 1.49 5.77 1.5 12.16-.98 17.66-2.37 5.21-7.95 8.37-13.55 8.6-5.1.21-10.31-.21-15.14-1.93-.98-.49-2.78-.81-2.55-2.29-.09-13.01-.03-26.03-.03-39.04m9.78 15.69c-.01 6.25 0 12.5-.01 18.75 3.23.61 6.89 1.25 9.84-.6 2.93-1.85 3.41-5.64 3.42-8.8 0-3.19-.5-6.93-3.27-8.95-2.96-1.99-6.74-1.01-9.98-.4zM158.31 72.36c2.04-1.22 4.47-.74 6.7-.61.04 4.54.01 9.08.06 13.62 4.67-1 9.72-1.62 14.3.15 4.25 1.65 7.25 5.64 8.28 10.01 1.37 5.8 1.27 12.19-1.39 17.62-2.49 4.91-7.88 7.83-13.28 8.07-5.64.21-11.52-.22-16.71-2.61-1.51-.52-.91-2.42-1.09-3.59.04-12.36-.04-24.72.03-37.07-.08-2.25 1.08-4.54 3.1-5.59m6.73 21.28c-.01 6.26-.01 12.52-.01 18.77 3.43.64 7.45 1.32 10.4-1.03 2.72-2.24 2.87-6.1 2.81-9.35-.07-3.11-.88-6.81-3.9-8.37-2.91-1.46-6.28-.58-9.3-.02zM76.66 87.72c1.82-2.47 5.21-2.78 8.01-2.35l.47.68c.35 7-.15 14.03.25 21.03.12 2.12.88 4.52 2.97 5.46 2.82 1.21 5.99.58 8.95.45.01-7.01-.02-14.01.01-21.01-.18-2.26.9-4.62 2.89-5.76 2.07-1.3 4.62-1.04 6.92-.65-.07 10.15.12 20.31-.09 30.45.11 2.33-1.71 4.37-4 4.64-4.95.8-10.03.97-15.01.4-4.23-.46-8.69-2.42-10.63-6.44-2.77-5.8-1.75-12.42-1.97-18.63.13-2.76-.55-5.89 1.23-8.27zM222.37 85.49c6-1.84 13.36-1.48 18.25 2.85 4.04 3.66 5.33 9.4 5.26 14.66.01 5.23-1.27 10.94-5.32 14.57-3.9 3.45-9.46 4.03-14.46 3.62-4.13-.31-8.42-2-10.83-5.52-3.53-5.06-3.88-11.66-3-17.58.9-5.58 4.6-10.82 10.1-12.6m3.81 7.82c-2.53 1.13-3.56 4-3.96 6.55-.43 3.31-.32 6.85 1.07 9.95 1.69 4.03 8.03 4.3 10.43.81 1.97-2.81 2.04-6.43 1.86-9.72-.21-2.45-.73-5.17-2.72-6.82-1.83-1.54-4.53-1.57-6.68-.77zM254.18 86.28c1.62-1.36 3.85-1.37 5.85-1.58 6.87-.4 14.19.76 19.76 5.06-.8 1.75-1.51 3.78-3.4 4.63-2.34 1.39-5.05.39-7.38-.44-2.03-.79-4.24-.57-6.37-.58-.1 9.05.12 18.1-.11 27.14-3.24.08-6.48.14-9.71-.11-.02-9.47.01-18.93-.02-28.39.06-1.95-.18-4.26 1.38-5.73zM286.58 89.55c3.36-3.69 8.56-5.05 13.41-4.92 4.75.11 9.68.49 14.01 2.61 1.58.55 1.17 2.46 1.26 3.77-.05 8.99.04 17.98-.04 26.97-.06 4.74-1.48 9.81-5.23 12.95-3.91 3.35-9.14 4.37-14.08 5.12-.97-2.06-1.77-4.55-.43-6.65 1.68-3.33 6.15-2.91 8.42-5.58 1.15-1.1 1.21-2.78 1.68-4.2-5.53 1.02-11.8 1.8-16.83-1.32-4.22-2.51-6.15-7.5-6.57-12.2-.6-5.75.34-12.15 4.4-16.55m9.45 4.31c-2.87 1.56-3.73 5.08-3.75 8.11-.06 3.09.12 6.86 2.83 8.89 3.02 2.18 6.96 1.17 10.33.58-.01-5.97 0-11.93-.01-17.9-3.08-.51-6.49-1.2-9.4.32zM343.54 87.5c2.01-2.48 5.55-2.58 8.42-1.88.04 6.8-.07 13.61.05 20.41.08 2.3.45 5.12 2.72 6.32 2.86 1.45 6.2.78 9.27.65.09-7.66-.18-15.32.13-22.97.85-4.09 5.68-5.61 9.31-4.53.63 1.4.28 3.01.39 4.51-.06 8.34.02 16.69-.03 25.03-.01 1.73-.3 3.79-1.92 4.77-2.07 1.26-4.6 1.15-6.92 1.42-5.01.23-10.24.47-15-1.38-3.13-1.16-5.64-3.82-6.63-7.01-1.83-5.77-1.01-11.89-1.22-17.84.08-2.52-.41-5.45 1.43-7.5zM383.31 86.8c5.26-2.01 10.99-2.65 16.6-2.29 3.68.24 7.65 1.59 9.72 4.86 2.27 3.43 1.83 7.72 1.88 11.63-.1 5.36.15 10.74-.11 16.09-.13 1.54-1.86 1.92-3 2.45-5.24 1.7-10.87 1.98-16.33 1.59-4.02-.37-8.56-1.76-10.67-5.5-2.55-5.11-1.26-12.37 3.9-15.36 4.98-3.09 11.08-1.96 16.63-2.34-.32-1.68-.23-3.88-2.02-4.78-3.9-2.03-8.35.38-12.38-.78-2.5-.77-3.72-3.2-4.22-5.57m8.29 25.6c3 1.95 6.77.98 10.05.44.04-2.74.04-5.48.04-8.22-2.92.1-5.92-.31-8.75.53-2.84 1.04-3.62 5.32-1.34 7.25zM198.41 109.49c3.63-1.16 7.96 1.63 7.95 5.54.28 3.1-2.29 6.09-5.38 6.31-3.64.61-7.49-2.61-7.05-6.38.05-2.57 2.06-4.8 4.48-5.47zM327.52 109.56c2.94-1 6.52.45 7.7 3.38 1.34 2.94-.17 6.78-3.2 7.94-3.28 1.48-7.62-.35-8.59-3.86-1.02-3.09 1.01-6.6 4.09-7.46z"/></g><g fill="#00cfff"><path d="M23.42 68.5c2.06-.88 4.64-1.07 6.54.29 2.65 1.79 3.21 5.35 2.8 8.31-.74 4.77-3.64 9.34-8.01 11.55-2.4 1.23-5.68 1.33-7.7-.68-2.36-2.28-2.42-5.93-1.83-8.94 1.1-4.42 3.95-8.63 8.2-10.53z"/><path d="M2.09 77.04c2.26-.25 2.39 2.29 2.72 3.9.73 6.87 1.63 13.98 5.15 20.07 1.44 2.55 3.85 4.86 6.91 5.07 4.41.27 8.49-1.9 12.14-4.12 8.52-5.6 15.84-12.76 23.57-19.35 1.55-1.09 3.21-2.72 5.25-2.44 2.44 1.32.02 4.15-1.11 5.56-7.57 8.39-16.12 17.19-17.76 28.91-3.21 9.03-2.95 20.19 3.93 27.49-.18-4.33-2.92-9.13-.32-13.14 6.88 8.5 18 11.02 27.77 14.63 1.42.75 4.01 1.3 3.81 3.36-2.5 2.71-6.66 2.33-10.01 3.02H57.7c-10.22-.9-20.25-4.18-28.89-9.76C12.18 129.72 1.2 111.05 0 91.41v-7.3c.36-2.41.4-5.13 2.09-7.07z"/></g><g fill="#7a95a9"><path d="M476.17 82.34c1.82-.64 2.75 2.37.94 2.96-1.86.63-2.93-2.49-.94-2.96zM531.79 85.77l3.02.12c1.26 3.94 2.65 7.83 3.85 11.79-2.17.49-3.24-.64-3.66-2.55h-3.56c-.23.57-.68 1.71-.91 2.28l-2.69.24c1.23-3.99 2.58-7.94 3.95-11.88m1.45 3.38c-1.32.92-1.95 5 .67 3.9l.44-.72c.19-1.35-.18-2.41-1.11-3.18zM572.3 85.67c4.27-1.28 2.14 5.31 6.19 5 .13-1.56.14-3.14.31-4.7.59-.06 1.77-.19 2.36-.26.1 1.68.12 3.36.31 5.03 2.71-.23 2.87-2.86 3.69-4.85l2.49-.24c-.45 1.92-.95 3.82-1.82 5.6 1.41 1.83 1.72 4.17 2.32 6.35-.67-.03-2.02-.08-2.69-.1-.59-2.31-.89-5.83-4.16-5.36-.04 1.81-.07 3.62-.07 5.43-.85-.01-1.69-.02-2.53-.01-.02-1.82-.04-3.63-.07-5.44-.57.11-1.71.34-2.28.45-1.32 1.23-1.22 3.32-1.97 4.89-.65.05-1.93.15-2.58.19.53-2.19.89-4.54 2.31-6.38-.82-1.79-1.35-3.7-1.81-5.6z"/></g><g fill="#7a96aa"><path d="M479.23 82.64c1.45-1.1 3.1 1.36 1.58 2.35-1.49 1.24-3.14-1.4-1.58-2.35zM432.01 85.77h2.83c.77 2.14 1.54 4.28 2.35 6.41.67-2.14 1.34-4.29 2.03-6.42.71 0 2.13.01 2.84.02-1.31 3.43-2.39 6.95-3.81 10.34-.67 2.14-3.22 1.62-4.91 1.7.02-.48.08-1.43.1-1.91 1.06-.23 2.1-.53 3.12-.9-2.53-2.48-3.07-6.15-4.55-9.24zM443.69 85.75c.63.05 1.89.15 2.52.21.12 1.53.15 3.07.23 4.61 2.98.34 3.17-2.59 3.98-4.65l2.47-.28c-.44 1.91-1.04 3.78-1.73 5.61 1.2 1.9 1.69 4.12 2.25 6.27-.88.03-1.76.03-2.63.01-.42-1.41-.76-2.85-1.29-4.21-.59-1.18-2.09-.89-3.14-1.18-.03 1.8-.05 3.61-.05 5.42-.88-.01-1.74-.01-2.61 0-.01-3.94-.01-7.87 0-11.81zM561.94 85.86c2.35.02 4.76-.3 7.07.26 2.15 1.04 2.69 4.18 1.11 5.91-1.41 1.59-3.75 1.15-5.62 1.36-.01 1.38 0 2.76.01 4.14-.65.01-1.95.02-2.6.03-.05-3.9-.07-7.8.03-11.7m2.56 2.09c0 1.12.01 2.24.02 3.37l3.41-.4c1.53-2.53-1.59-3.22-3.43-2.97zM593.19 85.89c.74-.04 2.23-.12 2.97-.17 1.31 3.79 2.62 7.57 3.84 11.38v.47c-.67-.01-2.01-.02-2.68-.02l-.72-2.43-3.53.03c-.7 1.61-1.68 3-3.74 2.67 1.14-4.02 2.56-7.96 3.86-11.93m1.45 2.8c-.4 1.44-.79 2.87-1.17 4.31.63 0 1.89-.01 2.52-.01-.45-1.44-.9-2.87-1.35-4.3zM446.4 107.36c2.6-.34 5.24-.15 7.86-.17.32 3.92.15 7.85.16 11.78h-2.6c-.01-3.18-.01-6.36-.01-9.54l-3.19.03c-.33 3.67.18 9.03-4.46 10.09-1.4-1.96.95-2.91 1.41-4.49.53-2.54.36-5.16.83-7.7z"/></g><g fill="#7b97ab"><path d="M455.21 85.94c2.29-.1 4.63-.36 6.9.14 2.44.94 2.91 4.39 1.13 6.18-1.47 1.35-3.63.92-5.45 1.12.01 1.04.02 3.13.03 4.18-.66-.01-1.97-.03-2.63-.03-.01-3.87-.02-7.73.02-11.59m2.61 1.93v3.32l3.52-.08c-.14-.91.7-2.33-.46-2.8l-3.06-.44zM468.3 85.92c1.15-.08 3.15-.62 3.47 1.03 1.21 3.55 2.44 7.11 3.46 10.72-1.99.33-3.38-.47-3.61-2.54-1.22-.01-2.44-.01-3.65-.01-.19.6-.56 1.81-.75 2.41-.92.02-1.84.02-2.75 0 1.26-3.88 2.59-7.72 3.83-11.61m1.6 7.35c2.04-.3.9-3.22-.03-4.13-1.22.74-1.98 3.87.03 4.13zM482.42 85.97l2.61-.2c-.01 1.51 0 3.02.01 4.54h4.49c.08-1.43-.16-2.93.23-4.33l2.36-.28c-.04 4 .16 8.01-.21 12-.58-.06-1.76-.17-2.35-.22 0-1.64-.01-3.28 0-4.92h-4.49c-.06 1.7-.07 3.39-.15 5.09l-2.48-.16c-.01-3.84 0-7.68-.02-11.52zM516.98 85.72l2.49.2c.12 1.52.11 3.05.15 4.58 3.07.53 3.23-2.55 4.07-4.62.63-.05 1.88-.16 2.51-.22-.5 1.92-1.11 3.8-1.86 5.63 1.37 1.89 1.78 4.19 2.31 6.41-3.91 1.16-2.55-3.79-4.7-5.13-.59-.12-1.76-.35-2.34-.47-.05 1.81-.05 3.61-.06 5.42l-2.49.12c-.17-3.97-.09-7.95-.08-11.92zM556.57 86.02c.64-.08 1.91-.23 2.55-.3 0 3.94.02 7.89-.03 11.84l-2.59-.04c.05-3.83-.11-7.67.07-11.5zM510.79 103.59c1.01.5 2.04.99 3.08 1.48 1.12-.54 2.27-1 3.45-1.4-.38 3.85-7.13 4.26-6.53-.08zM433.26 107.26c2.62-.09 5.25-.08 7.87-.07-.02.56-.05 1.68-.07 2.24-1.78 0-3.55.01-5.31.01v1.94c1.72.13 3.57-.16 5.17.63 2.29 1.43 2.03 5.38-.45 6.46-2.3.91-4.86.38-7.25.39-.04-3.87-.09-7.74.04-11.6m2.52 6.28c-.01.79-.02 2.36-.03 3.14 1.38-.2 4.07.54 3.94-1.68.09-1.88-2.67-1.23-3.91-1.46zM460.14 107.15c.68-.01 2.03-.01 2.71-.01 1.52 3.86 2.7 7.84 4.05 11.77l-2.68.08c-.23-.62-.68-1.87-.9-2.5-1.24.01-2.48.01-3.71.01-.21.62-.64 1.87-.85 2.49-.67-.02-2-.07-2.66-.09 1.32-3.93 2.5-7.91 4.04-11.75m.1 7.22c.61 0 1.84.01 2.46.01-.39-1.53-.81-3.06-1.16-4.59-.44 1.52-.86 3.05-1.3 4.58zM469.14 108.05c2.23-1.59 5.2-.62 7.76-.84-.02.54-.07 1.63-.1 2.18-1.89.06-3.79.06-5.66.21-.02 3.12-.02 6.24-.02 9.36h-2.54c.2-3.62-.61-7.41.56-10.91zM492.5 107.5c2.34-.72 4.96-.16 7.41-.26.19 2.99-.01 6 .24 8.99.29.31.88.92 1.17 1.23l-.12 4.02c-.51.09-1.53.28-2.04.37l-.24-2.88c-2.47-.01-4.95-.01-7.42.01.14 1.72-.39 2.96-2.28 2.95-.11-1.56-.2-3.12-.23-4.68 3.79-1.74 1.82-6.81 3.51-9.75m1.92 1.93c-.31 2.44-.66 4.87-1.09 7.3 1.02-.02 3.08-.05 4.11-.06-.01-2.41-.01-4.81-.01-7.22-.75 0-2.26-.02-3.01-.02zM503.38 107.24c.65-.02 1.95-.07 2.59-.09.04 3.94.04 7.87 0 11.81-.64 0-1.93-.01-2.58-.01-.02-3.9-.03-7.81-.01-11.71z"/><path d="M508.76 107.19c.64-.01 1.92-.01 2.55-.01-.01 2.62-.01 5.25.02 7.88 1.61-2.63 3.21-5.27 4.84-7.89.64.04 1.92.13 2.56.17.04 3.87.03 7.75.01 11.62h-2.53c-.01-2.62-.02-5.23-.02-7.85-1.66 2.57-2.98 5.42-5 7.74-.55.05-1.65.14-2.21.19-.41-3.94-.18-7.9-.22-11.85zM521.44 107.22c.64-.01 1.91-.04 2.55-.06.02 1.51.03 3.02.06 4.53 1.5-.01 3-.01 4.5 0 0-1.51.01-3.01.03-4.51.64.01 1.9.01 2.54.01 0 3.92 0 7.85-.01 11.77h-2.55c0-1.66.01-3.32.03-4.98-1.52-.09-3.04-.09-4.55-.14-.01 1.71-.02 3.42-.02 5.12-.64 0-1.93-.01-2.57-.01-.02-3.91-.02-7.82-.01-11.73zM556.28 107.22c3.05-.03 6.1-.11 9.15 0 .08.55.23 1.64.31 2.19l-3.49.04c0 3.16 0 6.33-.01 9.5l-2.59.04c-.03-3.19-.03-6.37-.04-9.55-.81-.01-2.44-.02-3.26-.03-.01-.55-.05-1.64-.07-2.19z"/></g><g fill="#7894a7"><path opacity=".98" d="M477.01 85.94h2.7c-.01 3.86-.01 7.71-.01 11.57-.66.02-1.97.08-2.63.1-.09-3.89-.04-7.78-.06-11.67zM567.51 107.17h2.56c.09 3.94.05 7.87.04 11.81h-2.59c-.04-3.93-.05-7.87-.01-11.81z"/></g><g fill="#7b97aa"><path d="M497.2 86.23c1.95-1.08 4.21-.37 6.25-.03l-.8 2.01c-1.26-.06-2.52-.1-3.77-.14-2.42 1.56-1.89 4.74-.99 7.03 2.1.83 5.28-1.6 6.18 1.48-2.71 1.46-6.77 1.96-8.79-.85-1.61-3.01-1.33-7.67 1.92-9.5zM545.16 85.97c2.65-.2 5.3-.18 7.96-.14 0 .55-.01 1.65-.01 2.2-1.79 0-3.58.01-5.35.01 0 .47-.01 1.39-.02 1.85 2 .25 4.42-.19 5.97 1.43 1.18 1.65 1.03 4.41-.83 5.52-2.38 1.31-5.22.62-7.79.53.05-3.8 0-7.6.07-11.4m2.6 6.18c0 .78.01 2.32.01 3.09l3.62-.04c.07-.49.2-1.46.26-1.94-.62-1.58-2.65-.77-3.89-1.11z"/></g><g fill="#7a96aa"><path d="M505.75 85.97c.62-.06 1.87-.19 2.49-.25-.01 1.4-.01 2.8-.01 4.2 1.91.2 4.13-.23 5.74 1.09 1.91 1.9 1.1 5.51-1.51 6.3-2.15.46-4.38.2-6.55.29-.37-3.86-.28-7.76-.16-11.63m2.51 6.14l-.04 3.2c1.33-.09 2.66-.19 3.99-.29l-.52-2.63c-1.15-.14-2.29-.23-3.43-.28zM480.36 107.41c2.64-1.21 6.43-.01 7.1 3.05.66 2.68.61 6.28-1.98 7.95-2.65 1.46-6.95.78-7.75-2.56-.85-2.9-.51-7.06 2.63-8.44m2.63 9.41c.72-.49 1.4-1.05 2.04-1.66-.03-1.46-.03-2.91-.01-4.36-.49-.38-1.47-1.16-1.96-1.54-4.01-.2-4.22 7.8-.07 7.56zM536.37 107.42c2.2-.95 5.19-.45 6.54 1.68 1.18 2.15 1.2 4.85.4 7.13-1.44 4.02-8.51 3.9-9.55-.36-.83-2.9-.51-7.06 2.61-8.45m1.02 9.07c1.47.96 2.68-.42 3.7-1.31-.13-2.17.48-4.91-1.98-5.99-3.49.06-3.95 5.4-1.72 7.3z"/></g><path fill="#7b96aa" d="M548.62 107.63c1.89-1.13 4.13-.44 6.15-.06-.2.74-.43 1.48-.69 2.2-1.2-.12-2.41-.51-3.6-.3-2.35 1.08-2.37 4.38-1.28 6.38 1.55 1.73 3.94.05 5.84.78v1.55c-2.7 1.43-7.03 1.55-8.59-1.57-1.29-2.94-.9-7.29 2.17-8.98z"/><path fill="#00bae5" d="M42.89 142.13c-6.88-7.3-7.14-18.46-3.93-27.49-.5 5.06.91 10.09 3.61 14.35-2.6 4.01.14 8.81.32 13.14z"/></svg>