<svg width="400" height="242pt" viewBox="0 0 300 242" xmlns="http://www.w3.org/2000/svg"><path fill="#ffda00" d="M20.63 0h1.3c4.18 3.49 7.91 7.49 11.97 11.12 9.36 8.43 19.16 16.55 30.31 22.51-1.83-9.01-1.88-18.6 1.19-27.35.3-1.3 1.41-2.03 2.4-2.77 1.94 5.08 3.23 10.4 5.35 15.42 2.84 7.25 7 14.01 12.63 19.43 4.4-.18 8.92-.3 13.16 1.07 4.55 1.39 8.69 4.67 10.46 9.17-3.07.29-6.34.16-9.11 1.71-3.6 1.9-6.24 5.09-9.26 7.73-5.94 5.37-13.41 8.84-21.15 10.71-8.3 1.9-17 2.6-24.77 6.36-9.56 4.55-18.19 10.9-25.94 18.07-3.6 3.2-6.48 7.18-10.43 10-1.47-2.23-.2-4.68.73-6.81 7.17-15.75 18.74-29.25 32.56-39.57 5.35 1.48 10.73 3.03 16.3 3.44-3.39-2.84-7.16-5.16-10.79-7.68-12.65-9.34-21.67-23.27-25.89-38.35C20.51 9.6 19.22 4.7 20.63 0z"/><path fill="#e5c400" d="M47.54 52.56c3.63 2.52 7.4 4.84 10.79 7.68-5.57-.41-10.95-1.96-16.3-3.44 1.8-1.45 3.65-2.85 5.51-4.24z"/><g fill="#55db30"><path d="M122.02 65.91c9.73-6.27 21.08-11.3 32.92-10.03 6.43.31 13.52 4.12 15.06 10.77-2.34.04-4.8-.34-7.01.63-2.52 1.01-4.5 2.92-6.57 4.61 8.96 8.06 14.56 19.16 18.01 30.56.54 1.54.61 3.15-.29 4.59-3.07-2.3-5.56-5.23-8.27-7.91-5.94-5.95-12.53-11.42-20.15-15.08 1.03 5.64 3.03 11.57 1.36 17.27-2.7-1.88-3.85-5.13-5.74-7.7-2.99-4.94-6.66-9.39-10.37-13.78-4.06-.17-8.18.32-11.95 1.87-7.99 3.24-15.45 7.78-22.01 13.37-1.59 1.34-3.06 2.84-4.89 3.86l-.57-.83c.52-2.84 2.43-5.2 3.98-7.58 7.17-9.77 16.39-17.96 26.49-24.62zM133.73 125.24c.53-2.51 3.32-2.58 5.36-2.61.03 2.58.06 5.17.06 7.75 3.33-.47 7.27-1.05 10.03 1.37 3.42 3.02 3.57 8.2 2.66 12.35-.72 3.27-3.57 5.78-6.83 6.36-3.85.56-7.92.11-11.44-1.62.2-7.87-.13-15.74.16-23.6m5.42 9.74c-.03 3.6-.05 7.2.01 10.81 2.13.13 4.78.7 6.31-1.24 1.48-2.38 1.48-5.74.16-8.18-1.38-2.3-4.28-1.51-6.48-1.39zM156.86 124.01c1.04-1.66 3.12-1.24 4.76-1.15 0 2.5.01 5.01 0 7.52 3.27-.44 7.07-1.04 9.85 1.22 3.35 2.74 3.68 7.59 3.03 11.57-.47 3.37-3 6.37-6.37 7.14-4.01.91-8.21.15-12.02-1.26-.17-7.02-.03-14.04-.09-21.06.12-1.34-.27-2.96.84-3.98m4.78 10.99c-.01 3.6-.02 7.2 0 10.8 2.25.17 5.32.7 6.58-1.73 1.19-2.42 1.17-5.63-.29-7.93-1.39-2.13-4.23-1.2-6.29-1.14zM111.28 133.9c-.17-2.92 3.11-3.86 5.47-3.49.26 4.57-.27 9.18.35 13.73 1.12 2.58 4.22 1.89 6.47 1.89.06-4.33-.15-8.66.08-12.99.45-2.55 3.32-2.74 5.38-2.6-.07 5.88.15 11.76-.09 17.63-.03 2.47-3.11 2.42-4.87 2.6-3.9.11-8.99.46-11.45-3.26-2.15-4.13-1.18-9.03-1.34-13.51zM193.51 130.63c4.45-1.64 10.71-.48 12.56 4.41 1.75 4.79 1.44 11.64-3.42 14.51-4.52 2.12-11.61 1.66-13.75-3.58-2.06-5.22-1.34-13.04 4.61-15.34m1.84 4.71c-2.29 2.17-1.96 5.84-1.2 8.63 1.01 2.56 4.94 2.75 6.24.35 1.14-2.26 1.07-5.03.34-7.41-.7-2.15-3.63-2.98-5.38-1.57zM210.94 133.01c-.29-1.74 1.42-2.79 2.93-2.83 4.01-.45 8.32.12 11.75 2.38.78 1.69-1.14 3.07-2.58 3.45-2.21-.35-4.36-1.03-6.61-1.06.02 5.07.01 10.15 0 15.23-1.85.05-3.7.07-5.54.08.03-5.75-.13-11.5.05-17.25zM233.46 130.57c4.15-1.12 8.64-.45 12.54 1.26-.02 5.39.03 10.79 0 16.19-.01 2.68-.49 5.59-2.45 7.58-2.24 2.35-5.61 2.83-8.65 3.45-.33-1.48-.94-3.52.54-4.6 2.08-1.18 4.58-1.98 5.28-4.57-3.23.21-6.86 1-9.75-.93-3.49-2.27-3.99-6.96-3.52-10.76.34-3.41 2.64-6.65 6.01-7.62m.66 5.54c-1.39 2.32-1.52 5.49-.22 7.87 1.43 2.23 4.38 1.44 6.54 1.2-.01-3.39-.01-6.79-.01-10.18-2.12-.16-4.72-.72-6.31 1.11zM283.83 131.41c3.89-1.36 8.23-2.07 12.26-.88 2.2.58 3.32 2.71 3.91 4.73V149c-4.36 1.79-9.42 2.36-13.94.88-4.87-1.43-4.76-9.15-.46-11.22 2.87-1.42 6.18-.92 9.26-1.15-.61-.98-.55-2.68-1.97-2.89-2.13-.3-4.29.09-6.41-.22-1.3-.5-1.81-1.99-2.65-2.99m4.68 11.03c-.62 1.11-.52 2.62.51 3.46 1.77.63 3.65.26 5.47.09v-4.72c-1.98.25-4.47-.53-5.98 1.17zM261.71 131.85c1-1.67 3.15-1.27 4.76-1.54.32 4.53-.28 9.12.42 13.63.72 2.85 4.25 2.01 6.42 2.14.08-4.35-.17-8.71.12-13.06.52-2.48 3.33-2.79 5.43-2.54.02 5.18.03 10.35.02 15.53-.05 1.31.07 2.79-.91 3.82-2.52 1.07-5.34.89-8.01.87-2.69-.1-5.82-.67-7.42-3.09-1.92-3.18-1.42-7.06-1.53-10.6.16-1.71-.37-3.68.7-5.16zM179.35 144.46c2-1.46 5.43-.03 5.46 2.57.44 2.98-3.57 4.92-5.73 2.92-1.92-1.25-1.63-4.35.27-5.49zM252.25 144.32c2.39-1.5 5.93.89 5.12 3.68-.27 2.4-3.51 3.55-5.38 2.16-2.22-1.17-2.09-4.91.26-5.84z"/></g><g fill="#00cfff"><path d="M38.24 110.38c3.08-1.24 6.8-1.43 9.71.37 3.17 1.91 4.77 5.63 5.02 9.21.51 6.68-2.31 13.34-6.76 18.25-3.33 3.62-8.02 6.57-13.12 6.18-3.69-.24-6.88-2.98-8.09-6.4-1.93-5.1-.86-10.85 1.37-15.68 2.45-5.14 6.51-9.76 11.87-11.93z"/><path d="M1.52 127.37c.37-1.29 1.19-2.41 2.39-3.04 3.32.08 3.35 4.13 3.91 6.59 1.02 10.76 2.59 21.82 7.87 31.43 2.12 3.91 5.39 7.45 9.84 8.62-3.37 1.91-6.8 3.73-10.01 5.92 5.73.15 11.38-1.49 16.47-4.04.9-.41 1.23-1.4 1.78-2.14 6.42-1.97 12.31-5.33 17.68-9.32C62.9 153.01 73.3 143.31 83.98 134c2.4-1.91 4.85-4.12 7.96-4.71 1.92-.33 3.75 1.65 2.96 3.54-1.23 3.44-3.93 6.05-6.3 8.73-7.93 8.58-15.8 17.5-21.04 28.05-3.68 7.28-5.24 15.56-4.65 23.69-.39-1.59-.86-3.15-1.35-4.7-.73 2.38-1.35 4.82-1.45 7.33-.44 8.08-.51 16.54 2.86 24.08 1.63 3.55 3.15 7.7 6.94 9.48-1.63-7.55-4.88-15.31-2.36-23.07 3.86 5.8 9.55 10.12 15.6 13.44 9.29 5.13 19.59 7.96 29.52 11.55 2.58 1.06 5.55 1.99 7.06 4.54-.15.48-.46 1.45-.62 1.93-5.14 3.64-11.84 3.37-17.85 4.12h-7.04c-20.41-1.38-40.33-9.07-56.26-21.91C19.8 205.63 6.79 184.78 2.1 162.02c-1.06-4.85-1.52-9.8-2.1-14.72v-9.81c.24-3.4.49-6.85 1.52-10.12z"/></g><path fill="#677f90" opacity=".84" d="M148.21 168.28l.81-.34.81.36.34.85-.34.83-.84.34-.83-.35-.31-.86.36-.83z"/><path fill="#688090" opacity=".85" d="M151.17 168.3l.81-.36.82.34.36.83-.31.85-.83.36-.85-.34-.34-.84.34-.84z"/><path fill="#00bae6" d="M25.53 170.97c2.74.16 5.51.16 8.24-.26-.55.74-.88 1.73-1.78 2.14-5.09 2.55-10.74 4.19-16.47 4.04 3.21-2.19 6.64-4.01 10.01-5.92z"/><g fill="#7b97ab"><path d="M110.01 170.85c.64.05 1.94.15 2.59.19.64 1.86 1.29 3.72 1.93 5.57 1.14-2.13.62-6.69 4.29-5.8-1.32 3.38-2.13 6.99-3.94 10.15-1.23.67-4.1 1.23-4.01-1.11 1.05-.23 2.11-.46 3.16-.7-2.07-2.36-2.83-5.47-4.02-8.3zM120.25 170.98h2.24c.01 1.34.03 2.68.04 4.03.58-.09 1.73-.25 2.3-.33.77-1.77.8-4.57 3.51-3.91-.41 1.62-.9 3.22-1.61 4.74 1.02 1.81 1.54 3.83 2.04 5.84-3.14.94-2.64-2.74-3.76-4.38-.62-.12-1.85-.37-2.47-.49-.03 1.58-.04 3.16-.05 4.74-.56.01-1.68.02-2.24.03v-10.27zM130.36 170.97c1.88 0 3.77-.1 5.65.12 2.62.5 3.07 4.52.89 5.84-1.29.72-2.8.49-4.2.65-.47 1.44 1.05 5.08-2.23 3.71-.34-3.43-.11-6.88-.11-10.32m2.25 4.64l2.75.04c.37-.91 1.01-1.96-.21-2.53l-2.49-.28c-.02.92-.04 1.85-.05 2.77zM149.38 170.96c.58-.01 1.73-.04 2.3-.05-.06 3.41.16 6.83-.13 10.23l-2.14.23c-.08-3.47-.05-6.94-.03-10.41zM166.58 171.61c1.67-1.34 3.88-.59 5.78-.44l-.36 1.96c-1.38.09-3.47-.91-4.34.64-1.08 1.52-.98 3.91.35 5.26 1.58.84 3.96-1.13 4.88.97-.87 1.67-3.28 1.33-4.85 1.3-4.3-.79-4.57-7.37-1.46-9.69zM174.44 170.98h2.31v3.57c1.43.11 2.92 0 4.3.5 2.24 1.15 1.97 4.64-.13 5.82-2.1.68-4.34.34-6.49.19.01-3.36.01-6.72.01-10.08m2.31 5.47c0 .72.02 2.14.03 2.85.8-.09 2.39-.27 3.18-.37 1.29-2.56-1.67-2.4-3.21-2.48zM184.33 170.98c.57 0 1.72-.01 2.29-.01.01 1.4.04 2.79.06 4.19 3.7.52 2.07-5.25 5.73-4.4-.42 1.63-.89 3.25-1.58 4.8 1.05 1.79 1.51 3.82 2.03 5.81-3.26.93-2.6-2.82-3.85-4.49l-2.33-.36c-.04 1.61-.05 3.22-.08 4.84l-2.17-.21c-.26-3.38-.07-6.78-.1-10.17zM218.98 170.98h2.26c-.03 3.35.11 6.71-.06 10.07-.55.08-1.66.25-2.21.33-.04-3.47-.01-6.94.01-10.4zM232.75 170.75c3.66-.86 1.94 4.79 5.52 4.43l.06-4.21c.55 0 1.66.01 2.21.01.02 1.41.06 2.83.1 4.24 3.6.27 1.83-5.4 5.58-4.47-.41 1.64-.91 3.26-1.65 4.79 1.12 1.75 1.57 3.79 2.09 5.78-3.11.9-2.73-2.47-3.72-4.31-.58-.15-1.75-.45-2.33-.61-.04 1.65-.05 3.31-.08 4.97-3.6 1.06-1.71-3.23-2.28-4.93-4.19-.79-1.77 6.06-5.99 4.93.49-2 .98-4.04 2.03-5.84-.67-1.55-1.17-3.15-1.54-4.78zM172.45 189.63c.57.01 1.72.01 2.29.01.02 3.46.02 6.91-.02 10.37-.57-.02-1.71-.07-2.28-.09 0-3.43-.01-6.86.01-10.29zM188.26 189.64c.57 0 1.72 0 2.29-.01 0 1.31.01 2.61.02 3.92.96 0 2.89.01 3.85.01.01-1.33.03-2.64.05-3.96l2.27.07c.02 3.44.02 6.89-.03 10.34-.57-.02-1.7-.06-2.27-.09 0-1.47.01-2.95.01-4.42h-3.9c0 1.47 0 2.95.01 4.43-.57.01-1.71.05-2.28.07-.04-3.45-.04-6.91-.02-10.36zM228.5 189.64c.78 0 1.56.01 2.35.04-.05 3.45-.03 6.9-.07 10.35-.57-.04-1.71-.1-2.28-.14.01-3.42-.01-6.84 0-10.25zM111.02 189.74c2.32-.12 4.65-.13 6.98-.11 0 .49 0 1.49-.01 1.98-1.56.01-3.12.01-4.68.02v1.67c2.4-.25 6.39.2 5.86 3.61-.45 3.95-5.29 3-8.08 3-.13-3.39-.1-6.78-.07-10.17m2.29 5.41c.01.74.02 2.21.02 2.95 1.46-.16 3.7.05 3.58-2.05-.95-.99-2.37-.74-3.6-.9zM120.13 198.84c3.27-2.03 1.09-6.51 2.94-9.13 2.13-.18 4.26-.08 6.39-.1.28 3.44.15 6.9.15 10.35-.55 0-1.67 0-2.23.01 0-2.78-.01-5.56-.01-8.34h-2.81c-.38 2.99.29 7.8-3.59 8.58-.21-.34-.63-1.02-.84-1.37zM131.09 200.11c1.16-3.45 1.9-7.18 3.68-10.34.56-.07 1.69-.21 2.25-.29 1.27 3.49 2.44 7.02 3.52 10.57-1.94.54-2.72-.79-3.3-2.32l-2.74.24c-.59 1.51-1.82 2.24-3.41 2.14m4.7-3.88c1.6-.31 1-2.84.03-3.55-1.17.59-1.56 3.13-.03 3.55zM151.34 190.44c2.22-1.86 6.43-1.04 7.17 1.97.75 2.64.41 6.34-2.52 7.49-2.06.44-4.81.19-5.73-2.03-.93-2.38-.95-5.6 1.08-7.43m1.67 1.49c-1.32 1.62-1.31 4.29.06 5.89 4.65 2.07 4.44-8.41-.06-5.89zM159.9 198.45c3.12-1.71 1.95-5.9 2.88-8.8 2.27-.05 4.55-.11 6.81.25-.04 2.51-.04 5.03-.01 7.55 1.81 1.03.75 3.24.97 4.89l-1.88.05c-.03-.6-.08-1.81-.11-2.42-2.14-.01-4.28-.01-6.42 0-.1.58-.29 1.75-.38 2.33-2.68.92-1.58-2.3-1.86-3.85m3.78-.46c.89-.01 2.68-.03 3.57-.03v-6.43l-2.56.2c-.44 2.06-.65 4.17-1.01 6.26zM200.36 190.45c2.08-1.75 6.07-1.17 7.01 1.58.72 1.83.63 3.97-.09 5.79-1.55 3.38-7.6 2.99-8.32-.82-.5-2.21-.46-4.97 1.4-6.55m1.68 1.46c-1.71 1.93-1.37 6.85 2.1 6.11 2.39-1.7 1.57-7.98-2.1-6.11zM210.55 198.54c-1.68-2.54-1.43-6.86 1.44-8.48 1.65-1.09 3.66-.27 5.44-.15-.13.48-.38 1.44-.51 1.92-1.42.02-3.48-.9-4.38.72-.79 1.42-.9 3.43.11 4.78 1.54 1.73 4.79-1.2 5.42 1.86-2.35.88-5.74 1.67-7.52-.65zM218.84 189.78c2.71-.3 5.44-.14 8.16-.12l-.08 1.94c-.73.01-2.19.02-2.92.02 0 2.77 0 5.55-.02 8.32-.58.01-1.75.02-2.33.03-.02-2.78-.03-5.56-.03-8.34-.73 0-2.19-.02-2.92-.03l.14-1.82z"/></g><g fill="#7995a9"><path d="M141.87 170.85c.66.11 1.98.34 2.65.46 1.31 3.28 2.28 6.69 3.38 10.05-1.91.32-2.99-.45-3.25-2.32-1 .03-2 .11-2.99.23-.54 1.55-1.62 2.25-3.26 2.1 1.07-3.53 2.29-7.02 3.47-10.52m1.3 3.36c-1.17.46-1.59 2.98-.11 3.33 1.49-.28 1.49-2.92.11-3.33zM178.69 186.62c1.87.96 3.78 1.43 5.47-.15.91 3.51-5.75 3.81-5.47.15z"/><path d="M177.23 189.77c.55-.07 1.64-.22 2.19-.29.02 2.29.01 4.58 0 6.87 1.53-2.18 2.61-4.73 4.49-6.63.5-.02 1.5-.06 2.01-.09.08 3.42.06 6.84.03 10.26l-2.25.12-.03-6.9c-1.5 2.33-2.72 4.86-4.54 6.96-.46-.08-1.38-.22-1.84-.29-.22-3.33-.16-6.68-.06-10.01z"/></g><g fill="#7b97ab"><path d="M154.12 170.98h2.32c0 1.3-.01 2.6-.01 3.9h3.88c.01-1.3.01-2.6.02-3.9h2.3c0 3.47.03 6.94-.04 10.41-3.46 1.02-1.88-2.86-2.32-4.54-.96-.02-2.86-.04-3.81-.05-.01 1.39 0 2.79-.09 4.18-.56.1-1.68.3-2.24.41-.02-3.48-.01-6.95-.01-10.41zM197.24 171.03c.67-.02 2-.06 2.66-.09 1.15 3.47 2.37 6.9 3.39 10.41-1.78.26-2.84-.57-3.23-2.22h-2.98c-.38 1.67-1.54 2.39-3.24 2.24 1.05-3.47 2.25-6.9 3.4-10.34m.75 6.03c1.72 1.32 1.9-2.24.63-2.77-.97.66-1.18 1.58-.63 2.77zM209.02 170.98c2.3-.01 4.6-.02 6.9 0 .03.46.08 1.38.11 1.85-1.66.48-5.21-1.22-4.96 1.66 1.59.2 3.29 0 4.78.73 2.09 1.41 1.53 4.86-.76 5.78-2.01.42-4.08.21-6.11.18-.02-3.4-.04-6.8.04-10.2m2.25 5.46c-.01.73-.03 2.18-.03 2.91 1.43-.04 3.86.06 3.54-2.06-.98-.85-2.32-.68-3.51-.85zM251.05 170.94l2.65.08c1.15 3.45 2.33 6.88 3.42 10.34-1.71.17-2.91-.52-3.34-2.22-.74 0-2.23-.01-2.97-.02-.43 1.6-1.35 2.59-3.19 2.21 1.07-3.49 2.26-6.94 3.43-10.39m1.31 3.36c-.92.82-1.13 1.79-.62 2.92 1.66.83 2.06-2.63.62-2.92zM142.21 191.06c1.32-2.47 4.79-1.07 7.05-1.45.92 3.18-3.35 1.63-5.02 2.19.02 2.72.01 5.45 0 8.17-.55-.01-1.66-.02-2.21-.03.03-2.96-.26-5.94.18-8.88z"/></g><path fill="#7792a6" opacity=".97" d="M223.71 170.96c2.04.05 4.13-.19 6.15.25 2.07.89 2.31 3.92.81 5.43-1.31 1.09-3.12.79-4.69.96 0 .95.01 2.83.02 3.77l-2.32-.36c-.18-3.35-.07-6.7.03-10.05m2.24 1.93c.05.74.14 2.22.19 2.96 1.42-.04 4.36-.54 2.64-2.68l-2.83-.28z"/><path fill="#00b9e4" d="M60.11 195.93c.1-2.51.72-4.95 1.45-7.33.49 1.55.96 3.11 1.35 4.7.65 4.64 2.32 9.06 4.64 13.12-2.52 7.76.73 15.52 2.36 23.07-3.79-1.78-5.31-5.93-6.94-9.48-3.37-7.54-3.3-16-2.86-24.08z"/></svg>