<svg width="85pt" height="85pt" viewBox="0 0 85 85" xmlns="http://www.w3.org/2000/svg"><path fill="#d3e0e5" d="M40.4 0h3.65c13.74.47 26.93 8.04 34.27 19.64 3.98 6.17 6.2 13.37 6.68 20.68v4.12c-.63 14.6-9.31 28.5-22.21 35.37-5.54 3.14-11.84 4.69-18.16 5.19h-3.78c-13.7-.51-26.84-8.06-34.17-19.64C2.68 59.18.5 51.94 0 44.62v-4.06C.56 29.62 5.39 18.9 13.49 11.48 20.74 4.62 30.45.61 40.4 0m-1.32 3.17C24 4.3 10.24 14.99 5.29 29.26.31 42.81 3.62 58.97 13.64 69.4c8.97 9.83 23.19 14.52 36.25 11.88 15.84-2.81 29.06-16.26 31.55-32.17 2.52-13.83-3.19-28.67-14.21-37.36-7.81-6.35-18.12-9.49-28.15-8.58z"/><path fill="#d4e1e6" d="M30.01 21c12.33 6.98 24.64 14.03 36.98 21-12.34 6.98-24.64 14.02-36.98 21-.01-14-.01-28 0-42z"/></svg>