<svg width="64" height="64" viewBox="0 0 48 48" xmlns="http://www.w3.org/2000/svg"><g fill="#cedbe0"><path d="M23.88 0h.1c3.03 2.97 6 6 9.01 8.99C30.99 9 29 9 27 9v9h-6V9c-2 0-3.99 0-5.99-.01C17.95 5.98 21.03 3.1 23.88 0zM0 23.37c3.49-2.1 5.92-5.66 8.99-8.36C9 17.01 9 19 9 21h9v5.99c-2.52.06-5.04.06-7.54-.21-2.65.31-.45 4.13-2.18 5.02-3.01-2.11-4.83-5.7-8.28-7.23v-1.2zM39.01 15.01c3.01 2.95 5.91 6.02 8.99 8.89v.08c-2.97 3.03-6 6-8.99 9.01C39 30.99 39 29 39 27h-9v-6h9c0-2 0-3.99.01-5.99zM21 30h6v9c2 0 3.99 0 5.99.01-2.95 3.01-6.02 5.9-8.89 8.99h-.08c-3.03-2.97-6-6-9.01-8.99C17.01 39 19 39 21 39v-9z"/></g></svg>