<svg width="36" height="29pt" viewBox="0 0 27 29" xmlns="http://www.w3.org/2000/svg"><path fill="#97a6ac" d="M9.5 0h7.81c.4.3 1.19.91 1.59 1.21.06.68.19 2.05.26 2.73 1.98-.01 3.96-.09 5.93.13 1.35.78.74 2.73 1.18 4l-2 1.4c-.28 6.49.74 13.14-.6 19.53H3.37c-.98-6.33-.17-12.76-.53-19.13C2.23 9 1.56 8.18.83 7.41c.24-1.18.15-2.63 1.35-3.34 1.82-.21 3.65-.14 5.48-.13.43-1.4.96-2.76 1.84-3.94m.49 2v2h7.31c.12-.48.36-1.46.47-1.94-2.59-.07-5.18-.09-7.78-.06M2.24 7.33c7.71.07 15.45.38 23.15-.17-.27-.44-.8-1.33-1.06-1.78-6.77-.3-13.56-.06-20.34-.12-1.49-.57-1.2 1.35-1.75 2.07m2.12 1.95c-.12 5.96.03 11.93-.05 17.89 6.19.29 12.4.21 18.59.06-.04-6.04-.02-12.07-.01-18.1-1.28-.01-2.57-.05-3.85-.12-.09 4.92.05 9.84-.1 14.76-.38-.2-1.14-.6-1.53-.8-.06-4.65.39-9.34-.11-13.97l-2.43.08-.45.41c-.2 4.3.06 8.61-.02 12.91-.35.42-1.05 1.25-1.4 1.67-.32-4.95-.07-9.92-.15-14.87-.72-.06-2.16-.16-2.88-.21-.02 4.89.01 9.77 0 14.66-.47-.15-1.39-.45-1.86-.6-.03-4.72.09-9.44-.01-14.16-1.25.07-2.5.2-3.74.39z"/><path fill="#070808" opacity=".05" d="M9.99 2c2.6-.03 5.19-.01 7.78.06-.11.48-.35 1.46-.47 1.94H9.99V2z"/></svg>