<svg width="36" height="29pt" viewBox="0 0 27 29" xmlns="http://www.w3.org/2000/svg"><path fill="#cedbe0" d="M9.69 0h7.62l1.64 1.24c.03.67.1 2 .13 2.67 1.99.01 3.99-.09 5.97.16 1.59.73.82 2.71 1.1 4.06-.47.35-1.42 1.03-1.89 1.37-.04 6.01.23 12.03-.1 18.02-.17.37-.52 1.11-.7 1.48H3.53c-1.33-6.38-.34-12.99-.6-19.47C2.41 9.09 1.38 8.2.86 7.76c.17-1.32-.06-2.97 1.36-3.7 1.86-.23 3.75-.14 5.63-.15.17-1.5.61-2.93 1.84-3.91M10 2.01v1.97c2.44-.01 4.88-.01 7.33 0 .09-.48.28-1.42.37-1.9-2.57-.1-5.14-.07-7.7-.07M3.34 7.39c7.28-.07 14.61.38 21.88-.24-.21-.45-.63-1.35-.83-1.81-6.8-.21-13.61-.04-20.4-.08-1.54-.64-2.28 2.14-.65 2.13m.91 1.84c.14 5.96.09 11.93.03 17.89 6.2.37 12.44.29 18.64.05-.09-6.01-.02-12.02-.03-18.03-1.29-.05-2.59-.07-3.88-.07-.01 4.84.02 9.69-.02 14.53-.41-.13-1.23-.38-1.64-.51.14-4.72.31-9.46 0-14.17-.78.11-2.32.33-3.09.44.15 4.52.18 9.06.08 13.58l-1.36.89c-.3-4.85-.05-9.73-.12-14.59L9.96 9c.02 4.81-.02 9.63.05 14.44l-2-.2c.23-4.74.13-9.49.08-14.23-1.28.04-2.56.11-3.84.22z"/></svg>