<svg width="25pt" height="28pt" viewBox="0 0 25 28" xmlns="http://www.w3.org/2000/svg"><g fill="#869398"><path opacity=".89" d="M1.86 0h12.38c2.84 2.94 7.99 5.47 7.08 10.25l-1.13.05c-.54-3.44-5.25-.14-7.22-2.38-.13-1.99.01-3.99-.04-5.98-3.6-.36-7.28-.28-10.88-.04.04 8.06.05 16.13 0 24.2 1.58.31 3.2.09 4.79.14L7.92 28H1.85c-.27-.28-.79-.83-1.05-1.1C.63 18.32.67 9.68.78 1.09 1.05.82 1.59.27 1.86 0m12.3 1.99c.06 1.67.13 3.34.2 5.01 1.68.01 3.37 0 5.06-.02-.69-1.93-3.12-2.5-3.75-4.48l-1.51-.51z"/><path opacity=".89" d="M9.32 23.4c3.65-3.82 7.28-7.77 11.31-11.17 1.65 1.15 2.9 2.76 4.37 4.12v.51c-3.71 3.42-7.04 7.24-10.84 10.56l.23.58H9.78c-.74-1.44-.66-3.05-.46-4.6m10.46-6.15c.78 1.93 2.78.59 3.24-.76-.82-.67-1.6-1.39-2.35-2.15-1.13.28-2.72 2.23-.89 2.91m-6.48 4.11c-1.34 1.39.98 2.42 1.64 3.4 1.54-1.76 3.2-3.43 5.04-4.88-.55-1.05-1.62-1.73-2.45-2.54-1.49 1.26-2.72 2.79-4.23 4.02m-2.01 2.17c-1.33 1.77.57 4.03 2.45 2.51-.16-1.07-1.46-2.23-2.45-2.51z"/></g></svg>