<svg width="36" height="29pt" viewBox="0 0 27 29" xmlns="http://www.w3.org/2000/svg"><g fill="#b4c0c4"><path opacity=".88" d="M7.19 0h11.74c2.6 2.28 4.98 4.79 7.46 7.2-.04 5.68.19 11.37-.08 17.04-1.15 1.73-3.42.94-5.14 1.22-.38 1.2-.69 2.44-1.32 3.54H1.84c-.26-.3-.78-.91-1.03-1.21C.3 20.52.69 13.18.61 5.89.35 2.97 3.99 3.73 5.83 3.53c.37-1.2.59-2.49 1.36-3.53m.68 1.82c.01 7.26-.13 14.53.08 21.79 5.55-.01 11.1.02 16.65-.01.01-4.85 0-9.7 0-14.55-2.33-.18-4.94.57-7.06-.67-.65-2.08-.17-4.36-.3-6.52-3.12-.08-6.24-.07-9.37-.04m11.05.01c.12 1.81.16 3.62.22 5.43 1.77.03 3.55.04 5.33.03-1.72-1.95-3.6-3.75-5.55-5.46M2.41 5.42c-.05 7.24.03 14.47-.05 21.7 5.57.07 11.15.23 16.7-.07.04-.42.12-1.26.15-1.68-4.08-.13-8.18.22-12.25-.19-.18-.3-.52-.92-.69-1.22-.29-6.19.05-12.4-.16-18.59-1.23.01-2.47.03-3.7.05z"/><path opacity=".88" d="M11.64 10.87c2.86-.02 5.73-.12 8.59.08.16.41.47 1.23.62 1.65-2.99-.05-6.1.45-9.03-.23l-.18-1.5zM13.87 15.18c1.23-.68 4.26-1.14 4.78.39-1.31.38-4.16.98-4.78-.39zM12.08 18.28c2.91-.4 5.87-.18 8.8-.07-.11.39-.32 1.17-.43 1.56-2.79.24-5.62.27-8.4-.04l-.69-.75.72-.7z"/></g></svg>