<svg width="36" height="29pt" viewBox="0 0 27 29" xmlns="http://www.w3.org/2000/svg"><g fill="#849196"><path opacity=".87" d="M7.02 0h11.9c2.61 2.27 4.99 4.79 7.48 7.2-.08 5.67.24 11.36-.12 17.02-1.07 1.7-3.39.96-5.05 1.29-.34.87-1.03 2.61-1.38 3.48l1.05.01H2.03c-.34-.27-1.03-.8-1.37-1.07C.59 20.21.42 12.48.72 4.78c1.07-1.73 3.39-.95 5.05-1.28.39-1.18.8-2.34 1.25-3.5m.86 1.82c0 7.27-.15 14.54.09 21.8 5.54-.03 11.08.01 16.63-.02.01-4.85 0-9.7.01-14.55-2.49.02-5.06.25-7.41-.75.04-2.14.04-4.29.05-6.44-3.13-.07-6.25-.08-9.37-.04m11.04.01c.09 1.81.15 3.61.18 5.42 1.66.03 3.32.09 4.99.02-1.1-2.23-3.44-3.67-5.17-5.44M2.36 27.11c5.54.1 11.1.2 16.65-.01l-.08-1.67c-4.07-.22-8.14.01-12.22-.1-1.23-6.54-.19-13.3-.57-19.92l-3.7-.04c-.12 7.25.03 14.5-.08 21.74z"/><path opacity=".87" d="M11.78 12.67c0-.6-.01-1.21-.02-1.81 2.83-.02 5.68-.13 8.51.13.16.4.47 1.21.63 1.61-3.04.11-6.08.07-9.12.07zM12.89 15c1.89-.56 3.87-.54 5.82-.59l.04 1.97c-2.02-.1-4.47.56-5.86-1.38zM11.8 18.22c3.06-.25 6.14-.18 9.2.03-.15.37-.45 1.1-.59 1.46-2.85.4-5.76.24-8.63.08 0-.4.01-1.18.02-1.57z"/></g></svg>