<svg width="25pt" height="28pt" viewBox="0 0 25 28" xmlns="http://www.w3.org/2000/svg"><g fill="#bcc7cc"><path opacity=".89" d="M1.31 0h12.95c3.05 2.84 7.38 5.48 7.36 10.16l-.97-.13c-2.13-1.88-5.16-1.2-7.74-1.77l.03-6.45c-3.63-.09-7.26-.09-10.89-.02.05 8.13.04 16.26.01 24.38 1.57.05 3.15.09 4.72.14.28.42.83 1.27 1.1 1.69H1.55C.02 24.9.9 21.33.7 18.01c.29-6-.64-12.09.61-18.01m12.95 1.7c0 1.77.02 3.53.07 5.3 1.76 0 3.52-.01 5.29-.04-1.67-1.87-3.45-3.63-5.36-5.26z"/><path opacity=".89" d="M9.16 23.45c3.77-3.84 7.53-7.69 11.44-11.38 1.5 1.41 3 2.82 4.4 4.32v.45c-3.84 3.65-7.44 7.55-11.32 11.16H9.54c-.14-1.52-.27-3.03-.38-4.55m10.56-6.17c1.09 1.91 2.33.35 3.45-.57-.92-.86-1.85-1.72-2.77-2.57-.64.87-2.41 2.28-.68 3.14m-2.21.02c-1.38 1.36-2.76 2.72-4.17 4.05-.3 1.19-.6 2.38-1.11 3.5l-1.05-1.8c-.06.8-.17 2.39-.22 3.19.99-.01 1.98-.03 2.97-.05l-1.01-1.49c3.12-.38 4.97-3 7.12-4.99-.84-.81-1.68-1.61-2.53-2.41z"/></g></svg>