<svg width="50pt" height="58pt" viewBox="0 0 50 58" xmlns="http://www.w3.org/2000/svg"><g fill="#7e878b"><path opacity=".87" d="M21.66 0h7.62c2.88 2.99 6.4 5.68 7.92 9.68.83 2.79.88 5.75 1.73 8.53 2.5 1.31 5.38 1.72 7.82 3.15 1.84 1.39 2.63 3.69 3.25 5.82v23.75C48.99 53.65 47.21 56 45.14 58H5.98C3.49 56.59 1.46 54.52 0 52.08V26.02c1.04-1.59 2.12-3.19 3.59-4.41 2.57-1.66 5.72-2 8.4-3.44 1.1-3.68.69-7.88 2.99-11.13 1.9-2.63 4.34-4.81 6.68-7.04m3.01 6.85c-1.9.78-3.69 2.03-4.85 3.75-.53 2.17-.59 4.51-.08 6.7 2.24 3.05 6.53 2.48 9.8 2.06 3.13-1.62 3.34-5.6 2.4-8.58-1.38-2.5-4.18-5.16-7.27-3.93M9.38 27.49c-2.05.48-1.96 2.81-1.99 4.47.07 5.3-.06 10.6.08 15.9-.04 1.57.82 3.71 2.67 3.69 6.61.24 13.24 0 19.86.08 3.77-.08 7.59.31 11.34-.31 1.85-1.49 1.89-4.12 1.97-6.3-.03-5.69.18-11.41-.55-17.06-6.42-2.45-13.16-.15-19.76-.66-4.53-.14-9.22-1.39-13.62.19z"/><path opacity=".87" d="M25.44 39.62c2.04-.46 3.75 1.13 5.53 1.84-.79 1.3-1.26 2.9-2.48 3.89-1.58.4-3.27.42-4.86.03-1.41-1.27-1.09-3.35-1.47-5.03 1.08-.28 2.18-.52 3.28-.73z"/></g></svg>