<svg width="149pt" height="191pt" viewBox="0 0 149 191" xmlns="http://www.w3.org/2000/svg"><g fill="#969696"><path d="M0 0h149v191H0V0m4.78 9.83c.01 58.76.01 117.52.01 176.29h139.42c0-58.77 0-117.53.01-176.29H4.78z"/><path d="M9.61 89.91c20.84 0 41.68-.01 62.51 0 .02 12.32 0 24.64.01 36.96-20.84 0-41.69.01-62.54 0 .04-12.32.01-24.64.02-36.96zM76.88 89.91c20.83-.01 41.67 0 62.51 0 .01 12.32-.02 24.64.02 36.96-20.85.01-41.7 0-62.54 0 .01-12.32-.01-24.64.01-36.96z"/></g><g fill="#d0d0d1"><path d="M9.58 14.77c43.28-.01 86.56 0 129.84 0-.04 8.22-.07 16.43.02 24.65-43.29.02-86.59.02-129.88 0 .09-8.21.06-16.43.02-24.65zM9.44 48.14c43.37-.05 86.75-.05 130.12 0 .38 2.03-.66 2.74-2.56 2.38-42.45-.09-84.91.18-127.35-.13-.05-.56-.16-1.69-.21-2.25zM10.97 56.61c-2.38.96-2.03-3.21 0-2.36 42.86-.01 85.72-.03 128.58.02.46 2.02-.6 2.72-2.49 2.39-42.03-.02-84.07.09-126.09-.05zM9.44 62.78c-.42-2.05.68-2.73 2.58-2.39 42.45.11 84.92-.22 127.36.16.05.56.13 1.68.18 2.23-43.38.05-86.75.06-130.12 0zM9.31 66.6c43.46-.09 86.92-.09 130.38 0-.11.56-.34 1.68-.45 2.24-13.41.63-26.86-.12-40.28.22-26.29.06-52.57-.19-78.86 0-3.44-.04-6.9.18-10.33-.21-.12-.57-.35-1.69-.46-2.25zM9.6 75.19l-.06-2.49c43.31-.02 86.61-.02 129.92 0l-.06 2.49H9.6zM9.51 81.33c.05-.84.09-1.67.13-2.5 43.25.01 86.49 0 129.74 0 .03.83.06 1.66.1 2.5-43.32.02-86.64.02-129.97 0zM9.29 135.61c20.96-.14 41.92-.03 62.88-.06-.02.63-.04 1.89-.06 2.52-20.76-.06-41.52.12-62.28-.09-.13-.59-.4-1.78-.54-2.37zM76.83 135.55c20.96.03 41.93-.09 62.89.06l-.56 2.37c-20.75.21-41.52.03-62.27.09-.02-.63-.04-1.89-.06-2.52zM9.6 144.2l-.06-2.5c20.87-.01 41.74 0 62.61 0-.01.62-.02 1.88-.02 2.5H9.6zM76.85 141.7c20.87 0 41.74-.01 62.61 0l-.06 2.5H76.87c0-.62-.01-1.88-.02-2.5zM9.51 150.33c.05-.83.09-1.66.13-2.5 20.83.02 41.66.01 62.49.01 0 .63.02 1.88.02 2.5-20.88 0-41.76.02-62.64-.01zM76.87 147.84c20.83 0 41.66.01 62.49 0 .04.83.08 1.66.13 2.49-20.88.03-41.76.01-62.64.01 0-.62.02-1.87.02-2.5zM9.79 154.16c20.78-.18 41.56-.02 62.34-.07.01.6.02 1.8.03 2.4-20.96-.03-41.91.09-62.87-.06.13-.56.38-1.7.5-2.27zM76.87 154.09c20.78.05 41.56-.11 62.34.08.12.56.37 1.7.5 2.26-20.96.15-41.91.03-62.87.06.01-.6.02-1.8.03-2.4zM9.44 160.25c20.9-.07 41.8-.01 62.71-.03-.01.61-.01 1.82-.01 2.43-20.84-.12-41.7.23-62.53-.18-.04-.55-.12-1.66-.17-2.22zM76.85 160.22c20.9.02 41.8-.04 62.71.03.9 3.24-2.53 2.25-4.51 2.41-19.39-.04-38.79-.01-58.18-.01 0-.61-.02-1.82-.02-2.43zM10.21 166.46c20.64-.23 41.29-.02 61.93-.1 0 .61 0 1.82.01 2.43-20.9-.02-41.8.04-62.7-.03.19-.57.57-1.72.76-2.3zM76.86 166.36c20.84.12 41.7-.23 62.54.18.03.55.1 1.67.14 2.23-20.89.05-41.79.01-62.68.02v-2.43z"/></g></svg>