<svg width="149pt" height="191pt" viewBox="0 0 149 191" xmlns="http://www.w3.org/2000/svg"><g fill="#969696"><path d="M0 0h149v191H0V0m4.78 9.83c.02 58.76.01 117.53 0 176.29h139.43c0-58.77-.01-117.53.01-176.29H4.78z"/><path d="M9.58 91.22c20.85-.01 41.71-.01 62.56-.01-.02 12.33-.01 24.65-.01 36.97H9.59c.03-12.32.04-24.64-.01-36.96zM76.86 91.21c20.85.01 41.71-.01 62.56.01-.06 12.32-.03 24.64-.01 36.96H76.87c0-12.32.01-24.65-.01-36.97z"/></g><g fill="#d2d2d1"><path d="M9.59 14.77h129.82c-.03 8.22-.05 16.44.02 24.66-43.29.01-86.57.01-129.86 0 .07-8.22.05-16.44.02-24.66zM8.54 51.25c1-.9 1.8-2.44 3.42-1.99 41.69.07 83.4.08 125.09 0 1.62-.45 2.4 1.1 3.4 1.99-1.81.32-3.64.48-5.48.5-38.32-.04-76.64-.01-114.97-.02-3.82-.03-7.68.25-11.46-.48zM8.65 57.38c.88-1.03 1.7-2.38 3.3-1.92 41.69-.01 83.39-.01 125.08 0 1.6-.46 2.43.88 3.32 1.92-3.75.74-7.58.46-11.37.49H19.97c-3.78-.03-7.59.25-11.32-.49zM9.5 61.61h130c-.03.63-.09 1.89-.13 2.51H9.63c-.04-.62-.1-1.88-.13-2.51zM9.57 67.76c43.29-.01 86.57 0 129.86 0 0 .62.01 1.87.01 2.5H9.56c0-.63.01-1.88.01-2.5zM9.63 73.89h129.74c.04.63.1 1.88.13 2.51-43.33 0-86.67.01-130.01 0 .04-.63.11-1.88.14-2.51zM8.63 80.64c3.75-.76 7.59-.47 11.38-.5h109.04c3.78.02 7.58-.25 11.31.49-.89 1.02-1.69 2.39-3.29 1.91-41.73.03-83.46.02-125.19 0-1.58.47-2.35-.93-3.25-1.9zM9.57 136.76h129.86c0 .63.01 1.88.01 2.51H9.56c0-.63.01-1.89.01-2.51zM8.83 145.24c.48-1.75 1.53-2.54 3.17-2.36 42.27.1 84.55-.12 126.81.11.34.56 1.02 1.69 1.36 2.25-39.06.4-78.13.05-117.19.17-4.72-.04-9.44.14-14.15-.17zM8.63 149.64c1.79-.33 3.6-.5 5.42-.52 40.32.04 80.64.03 120.95 0 1.81.02 3.6.2 5.37.52-.9 1-1.7 2.37-3.28 1.9-41.73.04-83.46.04-125.18 0-1.59.47-2.39-.9-3.28-1.9zM8.54 157.23c1-.9 1.78-2.44 3.4-1.98 41.02.07 82.04.04 123.06.02 1.83.01 3.66.18 5.47.5-1.01.9-1.82 2.43-3.44 1.97-38.98-.07-77.97-.01-116.95-.03-3.85-.03-7.73.24-11.54-.48zM8.63 163.36c.9-1.05 1.74-2.4 3.35-1.92 41.68-.02 83.36-.02 125.04 0 1.61-.47 2.45.87 3.35 1.91-3.75.75-7.58.47-11.38.51-36.35-.01-72.7-.01-109.04 0-3.78-.03-7.59.24-11.32-.5zM8.83 167.76c6.73-.37 13.48-.11 20.21-.18 37.04.11 74.09-.22 111.13.17-.46 1.72-1.48 2.51-3.06 2.36-41.73-.02-83.47-.02-125.2.01-1.59.14-2.62-.64-3.08-2.36z"/></g></svg>