<svg width="149pt" height="191pt" viewBox="0 0 149 191" xmlns="http://www.w3.org/2000/svg"><g fill="#969696"><path d="M0 0h149v191H0V0m4.78 9.83c.02 58.76.01 117.52.01 176.29h139.42c.01-58.77-.01-117.53.01-176.29-46.48 0-92.96-.01-139.44 0z"/><path d="M9.46 91.36c13.71-.25 27.44-.24 41.15 0-.31 10.18-.08 20.38-.13 30.57-13.62.08-27.24-.14-40.86.12-.11-10.23.18-20.46-.16-30.69zM54.04 91.25c13.64-.06 27.29-.07 40.93 0-.12 10.21-.14 20.42.01 30.62-13.65.11-27.3.1-40.95.01.14-10.21.12-20.43.01-30.63zM98.41 91.33c13.67-.28 27.34-.05 41-.11-.04 10.23-.02 20.47-.01 30.71-13.63.01-27.25.01-40.88 0-.04-10.2.15-20.4-.11-30.6z"/></g><g fill="#d2d2d1"><path d="M9.58 14.77c43.28-.01 86.56-.01 129.84 0-.03 8.22-.07 16.43.02 24.65-43.29.02-86.59.02-129.88 0 .09-8.22.05-16.43.02-24.65zM9.49 51.73c-.45-1.62.05-2.42 1.51-2.39 42.34-.06 84.68-.04 127.02-.01 2.26-.86 2.02 3.24.07 2.4-42.87 0-85.73.01-128.6 0zM9.51 57.86c-.46-1.72.07-2.52 1.59-2.38 41.29-.07 82.59.02 123.89-.04 1.97.16 5.56-.86 4.5 2.42-43.33.02-86.65.02-129.98 0zM9.49 61.63c43.34-.04 86.68-.03 130.01 0-.03.62-.11 1.87-.14 2.49H9.65l-.16-2.49zM9.57 67.76c43.29-.01 86.57-.01 129.86 0 0 .62 0 1.87.01 2.49-43.29.01-86.59.01-129.88 0 .01-.62.01-1.87.01-2.49zM9.84 74.33c43.22-.16 86.45-.02 129.68-.07.39 1.6-.1 2.4-1.47 2.41-40.03.06-80.07-.01-120.1.03-2.93-.01-5.86.06-8.77-.19.16-.54.5-1.63.66-2.18zM9.56 80.6c3.13-.39 6.3-.14 9.44-.19 38.67-.02 77.34.03 116.01-.02 1.96.16 5.54-.83 4.49 2.44-43.34.01-86.67.01-130.01-.01.02-.55.05-1.67.07-2.22zM9.53 130.62c2.46-.57 5.01-.23 7.52-.3 37.99.01 75.97 0 113.96.01 2.82.05 5.67-.24 8.46.25.01.54.02 1.62.03 2.16-43.33.02-86.66.01-129.99.01 0-.53.01-1.6.02-2.13zM9.51 138.88c-.46-1.76.1-2.55 1.66-2.38 42.75.05 85.52-.22 128.25.13l.08 2.25c-43.33.02-86.66.01-129.99 0zM9.5 142.65c43.33-.03 86.67-.03 130 0-.03.62-.1 1.86-.13 2.49-43.25-.01-86.49-.01-129.74 0-.03-.63-.1-1.87-.13-2.49zM9.58 148.78c43.28-.01 86.56-.01 129.84 0 .01.62.02 1.87.02 2.49-43.29.01-86.59.01-129.88 0 0-.62.01-1.87.02-2.49zM9.79 154.99c43.14-.14 86.28-.14 129.41 0 .11.6.34 1.8.45 2.4-43.44.05-86.87.06-130.3 0l.44-2.4zM9.5 161.17c43.33-.02 86.67-.02 130 0-.01.55-.04 1.66-.06 2.22-2.14.31-4.31.18-6.46.2-40.65-.06-81.31.04-121.96-.05-1.47.1-1.97-.69-1.52-2.37zM9.34 167.62c43.43-.07 86.87-.06 130.31 0l-.44 2.4c-43.13.14-86.28.14-129.41 0-.12-.6-.35-1.8-.46-2.4z"/></g></svg>