<svg width="149pt" height="191pt" viewBox="0 0 149 191" xmlns="http://www.w3.org/2000/svg"><g fill="#969696"><path d="M0 0h149v191H0V0m4.78 9.83c.02 58.76 0 117.52.01 176.29h139.42c.01-58.77-.01-117.53.01-176.3-46.48 0-92.96-.01-139.44.01z"/><path d="M9.49 91.35c13.69-.24 27.39-.19 41.08-.02-.22 10.19-.06 20.39-.09 30.59-13.63.01-27.26.01-40.88 0-.05-10.19.15-20.38-.11-30.57zM54.07 91.23c13.63-.01 27.25-.04 40.87.01-.08 10.21-.1 20.43.01 30.64-13.63.07-27.27.1-40.9.01.11-10.22.07-20.44.02-30.66zM98.54 91.19c13.62.05 27.24.02 40.86.02-.01 10.24-.02 20.47 0 30.71-13.62.01-27.25.01-40.88 0 .04-10.24-.01-20.48.02-30.73zM9.57 130.63c20.85-.03 41.71-.01 62.57-.01.01 12.29-.08 24.58.05 36.88-20.88.16-41.76.08-62.64.04.11-12.3.08-24.61.02-36.91zM76.56 130.63c20.86-.03 41.71-.02 62.57-.01.01 12.29-.08 24.59.05 36.88-20.88.15-41.76.1-62.65.03.13-12.3.08-24.6.03-36.9z"/></g><g fill="#d2d2d1"><path d="M9.58 14.77c43.28-.01 86.56-.01 129.84 0-.03 8.21-.07 16.43.02 24.65-43.29.02-86.59.02-129.88 0 .09-8.22.05-16.44.02-24.65zM10.23 49.42c43.01-.23 86.04-.11 129.05-.06-.01.58-.03 1.74-.05 2.32-42.06.15-84.14-.02-126.21.08-1.42-.26-4.92.75-3.56-2.23l.77-.11zM9.31 55.55c43.45-.16 86.92-.14 130.37-.01l-.44 2.26c-43.16.11-86.33.12-129.49 0-.11-.57-.33-1.69-.44-2.25zM9.41 61.63c43.4-.04 86.79-.05 130.19.01l-.36 2.41c-43.16.11-86.33.12-129.49 0-.08-.6-.26-1.81-.34-2.42zM9.58 67.76c43.28-.01 86.56-.01 129.84 0 .01.62.01 1.87.02 2.49-43.29.01-86.58.01-129.87 0 0-.62 0-1.87.01-2.49zM9.76 73.96c43.16-.11 86.33-.12 129.48 0l.36 2.41c-43.4.05-86.81.06-130.21 0 .09-.6.28-1.81.37-2.41zM9.54 80.14c43.23.03 86.46-.08 129.69.06.12.57.35 1.69.47 2.26-41.88.24-83.76.01-125.64.11-1.98-.18-5.69.9-4.52-2.43z"/></g></svg>