<svg width="149pt" height="191pt" viewBox="0 0 149 191" xmlns="http://www.w3.org/2000/svg"><path fill="#959595" d="M0 0h149v191H0V0m4.8 9.83c-.02 58.76 0 117.52-.01 176.28 46.47.01 92.95.01 139.42 0-.01-58.76.01-117.52-.01-176.28H4.8z"/><g fill="#d0d0d1"><path d="M9.59 14.77h129.82c-.03 8.22-.05 16.44.02 24.65-43.29.02-86.57.02-129.86 0 .07-8.21.05-16.43.02-24.65zM9.57 48.11h129.86c.01.56.05 1.69.06 2.26-2.15.26-4.33.15-6.49.15-38.67 0-77.33.01-116 0-2.5-.02-5.01.14-7.49-.15.01-.57.05-1.7.06-2.26zM9.6 54.23c43.21.06 86.43-.06 129.65.06.11.56.35 1.67.47 2.23-1.24.08-2.48.13-3.72.16-40-.02-80-.01-120-.01-2.18-.06-4.4.24-6.54-.26.03-.54.1-1.63.14-2.18zM9.47 60.62c2.15-.44 4.35-.19 6.52-.23H133c2.17.04 4.38-.21 6.53.23-.03.55-.08 1.65-.11 2.19H9.58c-.03-.54-.08-1.64-.11-2.19zM9.59 149.14h129.83c.03.56.08 1.66.11 2.22-2.15.36-4.35.18-6.53.21-39-.01-78-.01-117 0-2.18-.03-4.38.16-6.54-.22.03-.55.09-1.66.13-2.21zM9.99 155.37c42-.22 84.01 0 126.01-.11 1.41.21 4.84-.74 3.54 2.19-1.81.47-3.7.21-5.54.27-41.01-.03-82.02.01-123.02-.02-.38-.07-1.14-.19-1.52-.26v-1.8l.53-.27zM9.46 161.64c2.16-.37 4.36-.2 6.54-.21h117c2.18.01 4.38-.16 6.54.21-.03.55-.1 1.66-.13 2.21H9.59c-.03-.55-.1-1.66-.13-2.21z"/></g><path fill="#cacacb" opacity=".97" d="M9.46 66.53h130.08c-.07.61-.2 1.84-.26 2.45-43.18.09-86.38.09-129.56 0-.06-.61-.19-1.84-.26-2.45z"/><path fill="#969696" d="M9.59 80.14h129.82c-.02 20.11-.07 40.22.03 60.32-43.29.03-86.59.03-129.88 0 .1-20.1.05-40.21.03-60.32z"/><path fill="#cececf" d="M9.47 167.58c43.35-.01 86.71-.01 130.06 0l-.24 2.45c-43.19.12-86.39.12-129.58 0l-.24-2.45z"/></svg>