<svg width="149pt" height="191pt" viewBox="0 0 149 191" xmlns="http://www.w3.org/2000/svg"><g fill="#969696"><path d="M0 0h149v191H0V0m4.78 9.83c.01 58.76.01 117.52.01 176.29h139.42c0-58.77 0-117.53.01-176.29H4.78z"/><path d="M9.59 96.16c13.63-.01 27.27-.01 40.9 0-.04 10.24-.04 20.47 0 30.71-13.63.01-27.27.01-40.9 0 .03-10.24.04-20.47 0-30.71zM54.05 96.19c13.63-.06 27.27-.06 40.9 0-.1 10.22-.09 20.44-.01 30.66-13.63.05-27.25.04-40.88 0 .08-10.22.09-20.44-.01-30.66zM98.51 96.16c13.63-.02 27.27-.01 40.9 0-.04 10.24-.03 20.47 0 30.71-13.63.01-27.27.01-40.9 0 .03-10.24.04-20.47 0-30.71z"/></g><g fill="#d0d0d1"><path d="M9.58 14.77c43.28-.01 86.56-.01 129.84 0-.04 8.22-.07 16.44.01 24.65-43.29.02-86.57.02-129.86 0 .08-8.21.05-16.43.01-24.65zM9.27 48.22c43.48-.18 86.98-.19 130.47.01-.01 1.83-.92 2.72-2.76 2.3-42.38-.1-84.78.16-127.16-.13-.14-.54-.42-1.63-.55-2.18zM9.26 54.35c43.49-.17 87-.18 130.49.01-.23.56-.68 1.69-.91 2.25-38.6.14-77.23.02-115.83.06-4.41-.1-8.83.22-13.22-.15-.13-.54-.4-1.63-.53-2.17zM9.26 62.7c-.01-1.82.89-2.78 2.75-2.32 42.39.11 84.8-.18 127.18.14.14.55.42 1.63.56 2.18-43.49.2-87 .18-130.49 0zM9.1 66.68c40.62-.32 81.24-.04 121.87-.14 2.97 0 5.95-.04 8.92.14l-.85 2.26c-39.65.25-79.33.04-118.99.07-3.36.04-6.74.23-10.09-.13-.22-.55-.65-1.65-.86-2.2zM9.59 75.19c-.01-.83-.03-1.66-.05-2.49 43.3-.02 86.61-.02 129.92 0-.02.83-.04 1.66-.05 2.49-43.27.01-86.54 0-129.82 0zM9.52 81.32l.09-2.49h129.77c.03.83.06 1.66.1 2.49-43.32.03-86.64.03-129.96 0zM9.93 85.18c42.37-.22 84.74-.03 127.11-.1 1.72-.31 2.67.44 2.86 2.26-40.63.35-81.27.04-121.9.15-2.97 0-5.94.05-8.9-.15.21-.54.62-1.62.83-2.16zM9.11 135.68c13.95-.22 27.93-.23 41.88.01-.2 1.82-1.16 2.6-2.9 2.35-12.71-.04-25.44.22-38.14-.13l-.84-2.23zM53.58 135.65c13.95-.17 27.91-.18 41.86 0l-.92 2.32c-13.35.14-26.73.22-40.08-.04-.22-.57-.65-1.71-.86-2.28zM97.99 135.7c13.96-.27 27.94-.23 41.9-.02-.08 3.38-3.63 2.18-5.88 2.41-11.7-.15-23.42.19-35.12-.17-.22-.55-.67-1.66-.9-2.22zM9.6 144.2l-.06-2.49c13.67-.02 27.34-.03 41.01 0-.03.83-.05 1.66-.07 2.49H9.6zM53.97 141.72c13.69-.04 27.37-.04 41.06 0-.03.62-.08 1.86-.1 2.47-13.62.02-27.24.02-40.86 0-.02-.61-.07-1.85-.1-2.47zM98.52 144.2c-.03-.83-.05-1.66-.06-2.49 13.66-.02 27.33-.02 41 0l-.06 2.49H98.52zM9.52 150.33l.09-2.49h40.85c.04.83.07 1.66.11 2.49-13.68.03-27.37.02-41.05 0zM54.11 147.84h40.78c.04.62.11 1.86.15 2.48-13.69.05-27.39.05-41.08 0 .04-.62.11-1.86.15-2.48zM98.43 150.33c.04-.83.07-1.66.11-2.49h40.85l.09 2.49c-13.68.02-27.36.03-41.05 0zM9.93 154.18c13.4-.16 26.82-.15 40.21-.01.22.54.65 1.62.87 2.16-13.97.28-27.95.26-41.91.02.21-.54.63-1.63.83-2.17zM54.4 154.15c13.39-.11 26.81-.11 40.21 0l.8 2.24c-13.94.17-27.88.17-41.82 0 .2-.56.61-1.68.81-2.24zM98.86 154.17c13.4-.14 26.81-.15 40.2.01.21.54.63 1.62.84 2.17-13.96.24-27.95.27-41.91-.02.22-.54.65-1.62.87-2.16zM9.26 160.33c13.85-.18 27.71-.19 41.56.01.4 3.21-2.85 2.18-4.85 2.31-12.06-.11-24.13.19-36.17-.14-.14-.55-.41-1.63-.54-2.18zM54.03 160.27c13.64-.08 27.29-.08 40.94 0 0 .58-.01 1.76-.02 2.35-13.63.04-27.27.04-40.9 0-.01-.59-.02-1.77-.02-2.35zM98.17 160.35c13.86-.22 27.73-.21 41.59-.01-.26.56-.77 1.68-1.03 2.24-13.34.06-26.7.21-40.03-.07-.13-.54-.4-1.62-.53-2.16zM10.23 166.44c13.35-.08 26.74-.21 40.08.06.13.54.38 1.63.51 2.17-13.86.2-27.72.2-41.57 0 .24-.56.73-1.68.98-2.23zM54.04 166.39c13.65-.04 27.29-.05 40.93.01 0 .59-.01 1.76-.01 2.35-13.64.06-27.29.07-40.93-.01 0-.58.01-1.76.01-2.35zM99.06 166.43c13.36-.05 26.79-.22 40.15.08l.52 2.17c-13.84.17-27.7.2-41.55-.01l.88-2.24z"/></g></svg>